<svg width="225" height="100" viewBox="0 0 225 100" fill="none" xmlns="http://www.w3.org/2000/svg">
<rect width="225" height="100" fill="white"/>
<path d="M90.5 52.5717H120V69.0717H90.5L84 54.5717H90.5V52.5717ZM90.5 52.5717L91.5 50.5717H100L101 52.5717" stroke="black"/>
<path d="M90.5 69.0717L84 54.5717H114.5L120 69.0717" stroke="black"/>
<path d="M122.354 63.2866C122.206 63.5195 122.274 63.8286 122.507 63.977L126.302 66.3952C126.535 66.5436 126.844 66.4751 126.993 66.2422C127.141 66.0093 127.072 65.7002 126.84 65.5518L123.466 63.4023L125.616 60.029C125.764 59.7961 125.696 59.487 125.463 59.3386C125.23 59.1902 124.921 59.2587 124.772 59.4916L122.354 63.2866ZM109.999 49.6068C110.302 45.2898 111.393 42.1714 112.948 40.012C114.498 37.86 116.528 36.6314 118.776 36.1188C123.301 35.0869 128.765 36.9536 132.886 40.2371C137.018 43.5287 139.619 48.0909 138.712 52.3146C137.811 56.5117 133.372 60.6951 122.668 63.0672L122.884 64.0435C133.695 61.6478 138.661 57.3189 139.69 52.5244C140.713 47.7565 137.768 42.8479 133.509 39.455C129.241 36.0539 123.472 34.0223 118.553 35.1439C116.079 35.708 113.835 37.0691 112.137 39.4277C110.444 41.7791 109.314 45.0926 109.001 49.5367L109.999 49.6068Z" fill="black"/>
<path d="M102.833 40.837C102.833 43.2923 100.7 45.337 98 45.337C95.2997 45.337 93.1666 43.2923 93.1666 40.837C93.1666 38.3816 95.2997 36.337 98 36.337C100.7 36.337 102.833 38.3816 102.833 40.837Z" stroke="black"/>
<path d="M95.6983 47.837L94.7192 44.7774C95.7971 45.5099 96.8837 45.8995 98 45.8995C99.1163 45.8995 100.203 45.5099 101.281 44.7774L100.302 47.837H95.6983Z" stroke="black"/>
<path d="M99.0667 48.337C99.0667 48.8893 98.5891 49.337 98 49.337C97.4109 49.337 96.9333 48.8893 96.9333 48.337C96.9333 47.7847 97.4109 47.837 98 47.837C98.5891 47.837 99.0667 47.7847 99.0667 48.337Z" fill="black"/>
<path d="M100.933 46.587H98.2667" stroke="black"/>
<path d="M95.3334 47.337H96.4H96.6667" stroke="black"/>
<path d="M98.5333 45.337V43.837H97.2V45.337" stroke="black"/>
<path d="M101.733 35.837L103.067 34.337" stroke="black"/>
<path d="M103.333 38.337L105.467 37.337" stroke="black"/>
<path d="M103.867 40.587H106" stroke="black"/>
<path d="M92.1333 40.587H90" stroke="black"/>
<path d="M94.8 35.837L93.7333 34.337" stroke="black"/>
<path d="M92.6667 37.837L91.0667 36.837" stroke="black"/>
<path d="M98 35.337V33.337" stroke="black"/>
<path d="M98.462 43.087C98.462 43.3631 98.2232 43.337 97.9287 43.337C97.6341 43.337 97.3953 43.3631 97.3953 43.087C97.3953 42.8108 97.6341 42.587 97.9287 42.587C98.2232 42.587 98.462 42.8108 98.462 43.087Z" fill="black"/>
</svg>
