<svg width="225" height="100" viewBox="0 0 225 100" fill="none" xmlns="http://www.w3.org/2000/svg">
<rect width="225" height="100" fill="white"/>
<rect x="99.6893" y="24.2386" width="28.0963" height="25.9091" rx="7.5" fill="black"/>
<circle cx="114" cy="39" r="4" fill="black" stroke="#C00000" stroke-width="2"/>
<path d="M110 29V39.3636" stroke="#C00000" stroke-width="2"/>
<path d="M96.9562 21H132V72.1705H96.9562M96.9562 21V72.1705M96.9562 21C95.2804 21 94.0699 22.9432 94.0699 22.9432V74.1136L96.9562 72.1705" stroke="black"/>
<path d="M132 72.1704H96.8796" stroke="black"/>
<path d="M96.8795 72.1704C93.4344 74.8472 92.6652 75.409 96.8795 78H132V72.1704" stroke="black"/>
<path d="M99.6892 74.1136H132V76.0568H97.5819" stroke="black" stroke-width="0.5"/>
<path d="M121.5 60.7159V60.8172L121.539 60.9105C122.455 63.0771 124.047 64.8164 125.423 66.1729C125.724 66.4696 126.009 66.742 126.275 66.9968C126.632 67.3393 126.956 67.6497 127.242 67.9439C127.486 68.1947 127.684 68.4154 127.831 68.6106C127.981 68.81 128.058 68.9564 128.089 69.0587C128.114 69.1446 128.1 69.1703 128.096 69.1782L128.095 69.179C128.084 69.2011 128.031 69.2739 127.84 69.3671C127.446 69.5592 126.695 69.7275 125.416 69.8444C122.883 70.0758 118.544 70.0883 111.547 69.9319L111.547 69.9318H111.536C105.954 69.9318 101.5 65.7683 101.5 60.7159C101.5 55.6635 105.954 51.5 111.536 51.5C117.113 51.5 121.5 55.6592 121.5 60.7159Z" fill="#D9D9D9" stroke="black"/>
<path d="M112.614 57.9205V58.5682M110.928 58.5682H112.614M112.614 58.5682V66.3409H113.456M113.456 66.3409H114.299H115.142H113.456Z" stroke="black"/>
<ellipse cx="113.035" cy="55.9773" rx="0.702408" ry="0.647727" fill="black"/>
</svg>
