<svg width="225" height="100" viewBox="0 0 225 100" fill="none" xmlns="http://www.w3.org/2000/svg">
<rect width="225" height="100" fill="white"/>
<path d="M77 52.3571V65.5C77 66.0523 77.4477 66.5 78 66.5H119.989C120.541 66.5 120.989 66.0523 120.989 65.5V52.3571M77 52.3571H120.989M77 52.3571L96.0232 37.6377C96.1984 37.5021 96.4137 37.4286 96.6352 37.4286H135.316C136.238 37.4286 136.669 38.5706 135.976 39.1795L120.989 52.3571" stroke="black"/>
<path d="M136.5 38L148 33.5H102.513C102.315 33.5 102.121 33.559 101.956 33.6695L95.5 38" stroke="black"/>
<path d="M148 33V57.121C148 57.5588 147.715 57.9458 147.297 58.0758L120.217 66.5" stroke="black"/>
<path d="M85.7406 48.25L95.5844 40.75H99.144L89.3002 48.25H85.7406Z" fill="#DB0000" stroke="black" stroke-width="0.5"/>
<path d="M92.7406 48.25L102.584 40.75H121.338L111.495 48.25H92.7406Z" fill="#2F2CDA" stroke="black" stroke-width="0.5"/>
<path d="M115.75 48.25L119.083 45.75H122.25L118.917 48.25H115.75Z" fill="#0E00B5" stroke="black" stroke-width="0.5"/>
<path d="M121.75 43.25L125.083 40.75H128.25L124.917 43.25H121.75Z" fill="#0E00B5" stroke="black" stroke-width="0.5"/>
</svg>
