<svg width="500" height="500" viewBox="0 0 500 500" fill="none" xmlns="http://www.w3.org/2000/svg">
<path d="M127.125 245.062C127.125 246.188 126.938 247.542 126.562 249.125C126.229 250.708 125.729 252.354 125.062 254.062C124.396 255.771 123.583 257.479 122.625 259.188C121.708 260.854 120.646 262.375 119.438 263.75C118.229 265.083 116.917 266.167 115.5 267C114.083 267.833 112.562 268.25 110.938 268.25C110.562 268.25 110.062 268.229 109.438 268.188C108.854 268.104 108.25 267.958 107.625 267.75C107.042 267.5 106.521 267.146 106.062 266.688C105.646 266.229 105.438 265.625 105.438 264.875C105.438 264.375 105.562 263.792 105.812 263.125C106.104 262.458 106.604 261.688 107.312 260.812C108.062 259.979 108.875 259 109.75 257.875C110.625 256.708 111.417 255.5 112.125 254.25C112.833 253 113.417 251.771 113.875 250.562C114.375 249.354 114.625 248.271 114.625 247.312C114.625 246.104 114.333 245.146 113.75 244.438C113.208 243.688 112.25 243.312 110.875 243.312C109.083 243.312 107.062 243.896 104.812 245.062C102.562 246.229 100.208 247.833 97.75 249.875C95.2917 251.917 92.7917 254.312 90.25 257.062C87.7083 259.771 85.25 262.688 82.875 265.812C80.5 268.896 78.25 272.125 76.125 275.5C74.0417 278.833 72.2083 282.146 70.625 285.438C69.0833 288.688 67.8542 291.833 66.9375 294.875C66.0625 297.875 65.625 300.604 65.625 303.062C65.625 306.104 66.4375 308.542 68.0625 310.375C69.6875 312.208 72.375 313.125 76.125 313.125C77.875 313.125 80.4792 312.458 83.9375 311.125C87.3958 309.75 90.2708 308.396 92.5625 307.062C94.8958 305.688 97.2292 304.188 99.5625 302.562C101.938 300.896 104.188 299.312 106.312 297.812C108.438 296.271 110.375 294.896 112.125 293.688C113.875 292.438 115.312 291.562 116.438 291.062C116.646 290.896 116.896 290.812 117.188 290.812C117.812 290.812 118.229 291.333 118.438 292.375C118.688 293.375 118.812 294.521 118.812 295.812C118.812 296.521 118.708 297.396 118.5 298.438C118.333 299.438 117.75 300.604 116.75 301.938C116.292 302.479 115.438 303.396 114.188 304.688C112.938 305.979 111.375 307.438 109.5 309.062C107.625 310.688 105.479 312.375 103.062 314.125C100.646 315.875 98.0208 317.479 95.1875 318.938C92.3958 320.396 88.7708 321.833 84.3125 323.25C79.8958 324.667 76.0417 325.375 72.75 325.375C68.875 325.375 65.5625 324.917 62.8125 324C60.0625 323.042 57.8125 321.729 56.0625 320.062C54.3125 318.396 53.0208 316.417 52.1875 314.125C51.3958 311.792 51 309.25 51 306.5C51 303.083 51.5208 299.417 52.5625 295.5C53.6042 291.583 55.0417 287.604 56.875 283.562C58.75 279.521 60.9583 275.479 63.5 271.438C66.0833 267.396 68.8958 263.542 71.9375 259.875C75.0208 256.167 78.2917 252.729 81.75 249.562C85.2083 246.396 88.75 243.646 92.375 241.312C96 238.979 99.6458 237.146 103.312 235.812C106.979 234.479 110.583 233.812 114.125 233.812C115.875 233.812 117.542 234.021 119.125 234.438C120.708 234.812 122.083 235.438 123.25 236.312C124.458 237.188 125.396 238.354 126.062 239.812C126.771 241.229 127.125 242.979 127.125 245.062ZM138.125 289.875C136.167 289.875 134.271 290.375 132.438 291.375C130.604 292.375 128.979 293.688 127.562 295.312C126.146 296.938 125.021 298.771 124.188 300.812C123.354 302.812 122.938 304.833 122.938 306.875C122.938 307.708 122.979 308.583 123.062 309.5C123.188 310.375 123.438 311.188 123.812 311.938C124.188 312.688 124.708 313.312 125.375 313.812C126.083 314.312 127.021 314.562 128.188 314.562C129.104 314.562 130.167 314.167 131.375 313.375C132.625 312.542 133.896 311.5 135.188 310.25C136.521 308.958 137.812 307.562 139.062 306.062C140.312 304.521 141.438 303.021 142.438 301.562C143.438 300.104 144.25 298.792 144.875 297.625C145.5 296.458 145.812 295.604 145.812 295.062C145.812 294.271 145.542 293.562 145 292.938C144.458 292.271 143.792 291.708 143 291.25C142.208 290.792 141.354 290.458 140.438 290.25C139.562 290 138.792 289.875 138.125 289.875ZM181.438 306C180.688 306.708 179.688 307.688 178.438 308.938C177.188 310.188 175.75 311.542 174.125 313C172.542 314.458 170.833 315.938 169 317.438C167.208 318.896 165.354 320.229 163.438 321.438C161.562 322.646 159.708 323.625 157.875 324.375C156.042 325.167 154.312 325.562 152.688 325.562C151.229 325.562 149.979 325.25 148.938 324.625C147.896 324 147.021 323.188 146.312 322.188C145.646 321.188 145.146 320.062 144.812 318.812C144.479 317.521 144.312 316.208 144.312 314.875C144.312 314 144.375 313.146 144.5 312.312C144.625 311.438 144.833 310.625 145.125 309.875C143.833 311.625 142.354 313.438 140.688 315.312C139.062 317.146 137.292 318.833 135.375 320.375C133.5 321.875 131.521 323.104 129.438 324.062C127.396 325.062 125.312 325.562 123.188 325.562C122.104 325.562 120.833 325.333 119.375 324.875C117.958 324.458 116.604 323.75 115.312 322.75C114.021 321.75 112.938 320.458 112.062 318.875C111.188 317.292 110.75 315.354 110.75 313.062C110.75 311.354 111 309.312 111.5 306.938C112.042 304.562 112.833 302.104 113.875 299.562C114.958 296.979 116.312 294.438 117.938 291.938C119.604 289.438 121.562 287.208 123.812 285.25C126.062 283.25 128.625 281.646 131.5 280.438C134.375 279.188 137.583 278.562 141.125 278.562C142.958 278.562 144.562 278.792 145.938 279.25C147.312 279.708 148.479 280.208 149.438 280.75C150.521 281.417 151.479 282.146 152.312 282.938C153.021 282.562 153.75 282.208 154.5 281.875C155.125 281.583 155.771 281.333 156.438 281.125C157.146 280.875 157.75 280.75 158.25 280.75C159.833 280.75 161.125 281.188 162.125 282.062C163.125 282.938 163.625 283.896 163.625 284.938C163.625 285.229 163.604 285.458 163.562 285.625C163.354 286.417 163.021 287.417 162.562 288.625C162.146 289.833 161.667 291.188 161.125 292.688C160.583 294.146 160.021 295.688 159.438 297.312C158.896 298.896 158.396 300.458 157.938 302C157.479 303.542 157.104 305 156.812 306.375C156.521 307.708 156.375 308.854 156.375 309.812C156.375 311.062 156.583 312.104 157 312.938C157.417 313.729 158.125 314.125 159.125 314.125C159.75 314.125 160.479 313.938 161.312 313.562C162.188 313.146 163.125 312.604 164.125 311.938C165.125 311.271 166.146 310.521 167.188 309.688C168.271 308.812 169.312 307.938 170.312 307.062C172.646 304.979 175.125 302.604 177.75 299.938C178.417 299.396 179.062 299.125 179.688 299.125C180.521 299.125 181.208 299.542 181.75 300.375C182.333 301.167 182.625 302.062 182.625 303.062C182.625 304.229 182.229 305.208 181.438 306ZM203.938 278.562C205.771 278.562 207.375 278.792 208.75 279.25C210.125 279.708 211.292 280.208 212.25 280.75C213.333 281.417 214.292 282.146 215.125 282.938C215.708 282.562 216.333 282.208 217 281.875C217.583 281.583 218.229 281.333 218.938 281.125C219.646 280.875 220.354 280.75 221.062 280.75C222.896 280.75 224.312 281.125 225.312 281.875C226.312 282.625 226.812 283.521 226.812 284.562C226.812 285.104 226.667 285.646 226.375 286.188L211.75 313.875L212.938 312.812C217.854 309.938 221.896 307.688 225.062 306.062C228.229 304.396 230.75 303.167 232.625 302.375C234.5 301.583 235.833 301.104 236.625 300.938C237.458 300.729 237.979 300.625 238.188 300.625C239.146 300.625 239.875 301 240.375 301.75C240.917 302.458 241.188 303.354 241.188 304.438C241.188 305.646 240.833 306.875 240.125 308.125C239.458 309.375 238.417 310.271 237 310.812C235.125 311.771 232.938 312.812 230.438 313.938C227.938 315.021 225.333 316.229 222.625 317.562C219.917 318.896 217.188 320.396 214.438 322.062C211.729 323.688 209.188 325.5 206.812 327.5L194.688 349.438C193.688 351.812 192.771 353.75 191.938 355.25C191.146 356.75 190.354 357.938 189.562 358.812C188.771 359.688 187.958 360.292 187.125 360.625C186.292 360.958 185.333 361.125 184.25 361.125C182.625 361.125 181.333 360.562 180.375 359.438C179.458 358.312 179 356.958 179 355.375C179 353.708 179.396 351.771 180.188 349.562C180.979 347.354 182.083 344.958 183.5 342.375C184.958 339.833 186.708 337.146 188.75 334.312C190.792 331.521 193.062 328.667 195.562 325.75L203.312 315.875C201.729 317.333 200.167 318.583 198.625 319.625C197.083 320.667 195.604 321.521 194.188 322.188C192.771 322.812 191.438 323.271 190.188 323.562C188.979 323.854 187.917 324 187 324C185.333 324 183.792 323.625 182.375 322.875C180.958 322.083 179.729 321 178.688 319.625C177.688 318.25 176.896 316.625 176.312 314.75C175.729 312.875 175.438 310.833 175.438 308.625C175.438 304.042 176.312 299.896 178.062 296.188C179.854 292.479 182.125 289.333 184.875 286.75C187.667 284.125 190.729 282.104 194.062 280.688C197.438 279.271 200.729 278.562 203.938 278.562ZM201.562 289.562C199.604 289.562 197.708 290.062 195.875 291.062C194.042 292.021 192.417 293.312 191 294.938C189.583 296.521 188.458 298.354 187.625 300.438C186.792 302.521 186.375 304.667 186.375 306.875C186.375 307.542 186.417 308.271 186.5 309.062C186.625 309.812 186.854 310.521 187.188 311.188C187.562 311.854 188.083 312.417 188.75 312.875C189.458 313.292 190.417 313.5 191.625 313.5C192.5 313.5 193.521 313.125 194.688 312.375C195.896 311.583 197.125 310.604 198.375 309.438C199.667 308.229 200.917 306.917 202.125 305.5C203.333 304.042 204.417 302.625 205.375 301.25C206.375 299.875 207.167 298.646 207.75 297.562C208.333 296.438 208.625 295.604 208.625 295.062C208.625 294.146 208.375 293.354 207.875 292.688C207.375 291.979 206.75 291.396 206 290.938C205.292 290.479 204.521 290.146 203.688 289.938C202.896 289.688 202.188 289.562 201.562 289.562ZM249 269.938C249 268.979 249.167 268 249.5 267C249.875 265.958 250.417 265.021 251.125 264.188C251.833 263.354 252.708 262.667 253.75 262.125C254.833 261.583 256.104 261.312 257.562 261.312C259.979 261.312 261.667 261.792 262.625 262.75C263.583 263.667 264.062 264.833 264.062 266.25C264.062 267.042 263.896 267.917 263.562 268.875C263.271 269.833 262.812 270.729 262.188 271.562C261.562 272.354 260.75 273.021 259.75 273.562C258.75 274.104 257.562 274.375 256.188 274.375C253.604 274.375 251.792 273.979 250.75 273.188C249.708 272.354 249.125 271.271 249 269.938ZM242.125 284C242.833 282.833 243.646 282 244.562 281.5C245.479 281 246.417 280.75 247.375 280.75C248.958 280.75 250.312 281.271 251.438 282.312C252.604 283.312 253.188 284.604 253.188 286.188C253.146 286.562 253.083 286.938 253 287.312C252.958 287.688 252.833 288.062 252.625 288.438C252.042 289.521 251.562 290.438 251.188 291.188C250.812 291.938 250.458 292.646 250.125 293.312C249.833 293.938 249.542 294.562 249.25 295.188C248.958 295.812 248.604 296.562 248.188 297.438C247.688 298.479 247.125 299.625 246.5 300.875C245.875 302.083 245.271 303.333 244.688 304.625C244.146 305.917 243.667 307.188 243.25 308.438C242.875 309.688 242.688 310.833 242.688 311.875C242.688 313 242.958 313.75 243.5 314.125C244.083 314.458 244.896 314.625 245.938 314.625C247.104 314.625 248.312 314.375 249.562 313.875C250.854 313.375 252.146 312.729 253.438 311.938C254.729 311.146 256 310.25 257.25 309.25C258.5 308.208 259.667 307.167 260.75 306.125C261.875 305.083 262.896 304.083 263.812 303.125C264.771 302.167 265.562 301.312 266.188 300.562C267.021 299.771 267.854 299.375 268.688 299.375C269.438 299.375 270.042 299.708 270.5 300.375C271 301.042 271.25 301.896 271.25 302.938C271.25 303.896 271 304.917 270.5 306C270.042 307.083 269.271 308.104 268.188 309.062C266.062 311.229 263.896 313.312 261.688 315.312C259.479 317.271 257.208 319.021 254.875 320.562C252.583 322.062 250.271 323.271 247.938 324.188C245.604 325.104 243.25 325.562 240.875 325.562C237.5 325.562 234.833 324.708 232.875 323C230.958 321.25 230 318.542 230 314.875C230 312.958 230.271 311.083 230.812 309.25C231.354 307.417 232 305.646 232.75 303.938C233.5 302.188 234.292 300.521 235.125 298.938C235.958 297.312 236.667 295.771 237.25 294.312C237.458 293.771 237.812 292.938 238.312 291.812C238.854 290.688 239.417 289.542 240 288.375C240.667 287 241.375 285.542 242.125 284ZM292.938 278.562C294.771 278.562 296.375 278.792 297.75 279.25C299.125 279.708 300.292 280.208 301.25 280.75C302.333 281.417 303.292 282.146 304.125 282.938C304.708 282.562 305.333 282.208 306 281.875C306.583 281.583 307.229 281.333 307.938 281.125C308.646 280.875 309.354 280.75 310.062 280.75C311.896 280.75 313.312 281.125 314.312 281.875C315.312 282.625 315.812 283.521 315.812 284.562C315.812 285.104 315.667 285.646 315.375 286.188L300.75 313.875L301.938 312.812C306.854 309.938 310.896 307.688 314.062 306.062C317.229 304.396 319.75 303.167 321.625 302.375C323.5 301.583 324.833 301.104 325.625 300.938C326.458 300.729 326.979 300.625 327.188 300.625C328.146 300.625 328.875 301 329.375 301.75C329.917 302.458 330.188 303.354 330.188 304.438C330.188 305.646 329.833 306.875 329.125 308.125C328.458 309.375 327.417 310.271 326 310.812C324.125 311.771 321.938 312.812 319.438 313.938C316.938 315.021 314.333 316.229 311.625 317.562C308.917 318.896 306.188 320.396 303.438 322.062C300.729 323.688 298.188 325.5 295.812 327.5L283.688 349.438C282.688 351.812 281.771 353.75 280.938 355.25C280.146 356.75 279.354 357.938 278.562 358.812C277.771 359.688 276.958 360.292 276.125 360.625C275.292 360.958 274.333 361.125 273.25 361.125C271.625 361.125 270.333 360.562 269.375 359.438C268.458 358.312 268 356.958 268 355.375C268 353.708 268.396 351.771 269.188 349.562C269.979 347.354 271.083 344.958 272.5 342.375C273.958 339.833 275.708 337.146 277.75 334.312C279.792 331.521 282.062 328.667 284.562 325.75L292.312 315.875C290.729 317.333 289.167 318.583 287.625 319.625C286.083 320.667 284.604 321.521 283.188 322.188C281.771 322.812 280.438 323.271 279.188 323.562C277.979 323.854 276.917 324 276 324C274.333 324 272.792 323.625 271.375 322.875C269.958 322.083 268.729 321 267.688 319.625C266.688 318.25 265.896 316.625 265.312 314.75C264.729 312.875 264.438 310.833 264.438 308.625C264.438 304.042 265.312 299.896 267.062 296.188C268.854 292.479 271.125 289.333 273.875 286.75C276.667 284.125 279.729 282.104 283.062 280.688C286.438 279.271 289.729 278.562 292.938 278.562ZM290.562 289.562C288.604 289.562 286.708 290.062 284.875 291.062C283.042 292.021 281.417 293.312 280 294.938C278.583 296.521 277.458 298.354 276.625 300.438C275.792 302.521 275.375 304.667 275.375 306.875C275.375 307.542 275.417 308.271 275.5 309.062C275.625 309.812 275.854 310.521 276.188 311.188C276.562 311.854 277.083 312.417 277.75 312.875C278.458 313.292 279.417 313.5 280.625 313.5C281.5 313.5 282.521 313.125 283.688 312.375C284.896 311.583 286.125 310.604 287.375 309.438C288.667 308.229 289.917 306.917 291.125 305.5C292.333 304.042 293.417 302.625 294.375 301.25C295.375 299.875 296.167 298.646 296.75 297.562C297.333 296.438 297.625 295.604 297.625 295.062C297.625 294.146 297.375 293.354 296.875 292.688C296.375 291.979 295.75 291.396 295 290.938C294.292 290.479 293.521 290.146 292.688 289.938C291.896 289.688 291.188 289.562 290.562 289.562ZM347.625 289.875C345.667 289.875 343.771 290.375 341.938 291.375C340.104 292.375 338.479 293.688 337.062 295.312C335.646 296.938 334.521 298.771 333.688 300.812C332.854 302.812 332.438 304.833 332.438 306.875C332.438 307.708 332.479 308.583 332.562 309.5C332.688 310.375 332.938 311.188 333.312 311.938C333.688 312.688 334.208 313.312 334.875 313.812C335.583 314.312 336.521 314.562 337.688 314.562C338.604 314.562 339.667 314.167 340.875 313.375C342.125 312.542 343.396 311.5 344.688 310.25C346.021 308.958 347.312 307.562 348.562 306.062C349.812 304.521 350.938 303.021 351.938 301.562C352.938 300.104 353.75 298.792 354.375 297.625C355 296.458 355.312 295.604 355.312 295.062C355.312 294.271 355.042 293.562 354.5 292.938C353.958 292.271 353.292 291.708 352.5 291.25C351.708 290.792 350.854 290.458 349.938 290.25C349.062 290 348.292 289.875 347.625 289.875ZM390.938 306C390.188 306.708 389.188 307.688 387.938 308.938C386.688 310.188 385.25 311.542 383.625 313C382.042 314.458 380.333 315.938 378.5 317.438C376.708 318.896 374.854 320.229 372.938 321.438C371.062 322.646 369.208 323.625 367.375 324.375C365.542 325.167 363.812 325.562 362.188 325.562C360.729 325.562 359.479 325.25 358.438 324.625C357.396 324 356.521 323.188 355.812 322.188C355.146 321.188 354.646 320.062 354.312 318.812C353.979 317.521 353.812 316.208 353.812 314.875C353.812 314 353.875 313.146 354 312.312C354.125 311.438 354.333 310.625 354.625 309.875C353.333 311.625 351.854 313.438 350.188 315.312C348.562 317.146 346.792 318.833 344.875 320.375C343 321.875 341.021 323.104 338.938 324.062C336.896 325.062 334.812 325.562 332.688 325.562C331.604 325.562 330.333 325.333 328.875 324.875C327.458 324.458 326.104 323.75 324.812 322.75C323.521 321.75 322.438 320.458 321.562 318.875C320.688 317.292 320.25 315.354 320.25 313.062C320.25 311.354 320.5 309.312 321 306.938C321.542 304.562 322.333 302.104 323.375 299.562C324.458 296.979 325.812 294.438 327.438 291.938C329.104 289.438 331.062 287.208 333.312 285.25C335.562 283.25 338.125 281.646 341 280.438C343.875 279.188 347.083 278.562 350.625 278.562C352.458 278.562 354.062 278.792 355.438 279.25C356.812 279.708 357.979 280.208 358.938 280.75C360.021 281.417 360.979 282.146 361.812 282.938C362.521 282.562 363.25 282.208 364 281.875C364.625 281.583 365.271 281.333 365.938 281.125C366.646 280.875 367.25 280.75 367.75 280.75C369.333 280.75 370.625 281.188 371.625 282.062C372.625 282.938 373.125 283.896 373.125 284.938C373.125 285.229 373.104 285.458 373.062 285.625C372.854 286.417 372.521 287.417 372.062 288.625C371.646 289.833 371.167 291.188 370.625 292.688C370.083 294.146 369.521 295.688 368.938 297.312C368.396 298.896 367.896 300.458 367.438 302C366.979 303.542 366.604 305 366.312 306.375C366.021 307.708 365.875 308.854 365.875 309.812C365.875 311.062 366.083 312.104 366.5 312.938C366.917 313.729 367.625 314.125 368.625 314.125C369.25 314.125 369.979 313.938 370.812 313.562C371.688 313.146 372.625 312.604 373.625 311.938C374.625 311.271 375.646 310.521 376.688 309.688C377.771 308.812 378.812 307.938 379.812 307.062C382.146 304.979 384.625 302.604 387.25 299.938C387.917 299.396 388.562 299.125 389.188 299.125C390.021 299.125 390.708 299.542 391.25 300.375C391.833 301.167 392.125 302.062 392.125 303.062C392.125 304.229 391.729 305.208 390.938 306ZM402.375 288.812C404.917 290.146 407.188 291.667 409.188 293.375C411.188 295.083 412.875 296.896 414.25 298.812C415.667 300.688 416.729 302.604 417.438 304.562C418.188 306.521 418.562 308.438 418.562 310.312C418.562 312.688 417.875 314.833 416.5 316.75C415.167 318.625 413.396 320.229 411.188 321.562C409.021 322.854 406.521 323.833 403.688 324.5C400.896 325.208 398.062 325.562 395.188 325.562C393.021 325.562 390.917 325.312 388.875 324.812C386.833 324.354 384.958 323.625 383.25 322.625C381.583 321.625 380.146 320.354 378.938 318.812C377.729 317.229 376.875 315.354 376.375 313.188C376.292 312.854 376.25 312.583 376.25 312.375C376.25 311.25 376.646 310.292 377.438 309.5C378.229 308.667 379.104 308.25 380.062 308.25C380.521 308.25 381.021 308.333 381.562 308.5C382.146 308.667 382.583 309.042 382.875 309.625C383.417 310.625 384.167 311.521 385.125 312.312C386.125 313.104 387.229 313.792 388.438 314.375C389.646 314.917 390.917 315.354 392.25 315.688C393.625 315.979 394.958 316.125 396.25 316.125C397.583 316.125 398.854 316 400.062 315.75C401.312 315.5 402.396 315.104 403.312 314.562C404.271 314.021 405.021 313.333 405.562 312.5C406.104 311.667 406.375 310.646 406.375 309.438C406.375 307.312 405.896 305.354 404.938 303.562C403.979 301.771 402.729 300.125 401.188 298.625C399.688 297.083 397.958 295.667 396 294.375C394.083 293.042 392.167 291.771 390.25 290.562C390.042 290.438 389.729 290.083 389.312 289.5C388.896 288.875 388.688 288.25 388.688 287.625C388.688 287.125 388.812 286.729 389.062 286.438C389.729 285.562 390.5 284.667 391.375 283.75C392.25 282.833 393.188 282 394.188 281.25C395.188 280.458 396.271 279.833 397.438 279.375C398.604 278.875 399.812 278.625 401.062 278.625C401.979 278.625 402.833 278.75 403.625 279C404.417 279.25 405.083 279.583 405.625 280C406.167 280.375 406.583 280.812 406.875 281.312C407.208 281.771 407.375 282.208 407.375 282.625C407.375 283.208 407.229 283.771 406.938 284.312C406.646 284.854 406.25 285.375 405.75 285.875C405.292 286.375 404.75 286.875 404.125 287.375C403.542 287.875 402.958 288.354 402.375 288.812Z" fill="black"/>
<path d="M170.417 146.062C170.417 147.188 170.23 148.542 169.855 150.125C169.522 151.708 169.022 153.354 168.355 155.062C167.688 156.771 166.876 158.479 165.917 160.188C165.001 161.854 163.938 163.375 162.73 164.75C161.522 166.083 160.209 167.167 158.792 168C157.376 168.833 155.855 169.25 154.23 169.25C153.855 169.25 153.355 169.229 152.73 169.188C152.147 169.104 151.542 168.958 150.917 168.75C150.334 168.5 149.813 168.146 149.355 167.688C148.938 167.229 148.73 166.625 148.73 165.875C148.73 165.375 148.855 164.792 149.105 164.125C149.397 163.458 149.897 162.688 150.605 161.812C151.355 160.979 152.167 160 153.042 158.875C153.917 157.708 154.709 156.5 155.417 155.25C156.126 154 156.709 152.771 157.167 151.562C157.667 150.354 157.917 149.271 157.917 148.312C157.917 147.104 157.626 146.146 157.042 145.438C156.501 144.688 155.542 144.312 154.167 144.312C152.376 144.312 150.355 144.896 148.105 146.062C145.855 147.229 143.501 148.833 141.042 150.875C138.584 152.917 136.084 155.312 133.542 158.062C131.001 160.771 128.542 163.688 126.167 166.812C123.792 169.896 121.542 173.125 119.417 176.5C117.334 179.833 115.501 183.146 113.917 186.438C112.376 189.688 111.147 192.833 110.23 195.875C109.355 198.875 108.917 201.604 108.917 204.062C108.917 207.104 109.73 209.542 111.355 211.375C112.98 213.208 115.667 214.125 119.417 214.125C121.167 214.125 123.772 213.458 127.23 212.125C130.688 210.75 133.563 209.396 135.855 208.062C138.188 206.688 140.522 205.188 142.855 203.562C145.23 201.896 147.48 200.312 149.605 198.812C151.73 197.271 153.667 195.896 155.417 194.688C157.167 193.438 158.605 192.562 159.73 192.062C159.938 191.896 160.188 191.812 160.48 191.812C161.105 191.812 161.522 192.333 161.73 193.375C161.98 194.375 162.105 195.521 162.105 196.812C162.105 197.521 162.001 198.396 161.792 199.438C161.626 200.438 161.042 201.604 160.042 202.938C159.584 203.479 158.73 204.396 157.48 205.688C156.23 206.979 154.667 208.438 152.792 210.062C150.917 211.688 148.772 213.375 146.355 215.125C143.938 216.875 141.313 218.479 138.48 219.938C135.688 221.396 132.063 222.833 127.605 224.25C123.188 225.667 119.334 226.375 116.042 226.375C112.167 226.375 108.855 225.917 106.105 225C103.355 224.042 101.105 222.729 99.355 221.062C97.605 219.396 96.3133 217.417 95.48 215.125C94.6883 212.792 94.2925 210.25 94.2925 207.5C94.2925 204.083 94.8133 200.417 95.855 196.5C96.8967 192.583 98.3342 188.604 100.167 184.562C102.042 180.521 104.251 176.479 106.792 172.438C109.376 168.396 112.188 164.542 115.23 160.875C118.313 157.167 121.584 153.729 125.042 150.562C128.501 147.396 132.042 144.646 135.667 142.312C139.292 139.979 142.938 138.146 146.605 136.812C150.272 135.479 153.876 134.812 157.417 134.812C159.167 134.812 160.834 135.021 162.417 135.438C164.001 135.812 165.376 136.438 166.542 137.312C167.751 138.188 168.688 139.354 169.355 140.812C170.063 142.229 170.417 143.979 170.417 146.062ZM154.57 215.125C155.57 213 156.716 210.646 158.007 208.062C159.299 205.438 160.591 202.854 161.882 200.312C163.216 197.729 164.466 195.292 165.632 193C166.799 190.667 167.778 188.688 168.57 187.062L189.195 146.5C189.445 145.958 189.82 145.438 190.32 144.938C190.862 144.438 191.466 144 192.132 143.625C192.799 143.208 193.507 142.896 194.257 142.688C195.007 142.438 195.757 142.312 196.507 142.312C198.341 142.312 199.612 142.667 200.32 143.375C201.028 144.042 201.382 144.875 201.382 145.875C201.382 146.792 201.153 147.771 200.695 148.812C200.237 149.812 199.716 150.75 199.132 151.625C197.299 154.75 195.528 157.917 193.82 161.125C192.153 164.292 190.466 167.5 188.757 170.75C187.091 173.958 185.403 177.167 183.695 180.375C181.987 183.542 180.195 186.688 178.32 189.812C179.487 188.688 180.716 187.521 182.007 186.312C183.341 185.104 184.778 184 186.32 183C187.862 182 189.549 181.188 191.382 180.562C193.216 179.896 195.257 179.562 197.507 179.562C198.841 179.562 200.112 179.688 201.32 179.938C202.528 180.188 203.591 180.604 204.507 181.188C205.424 181.729 206.153 182.5 206.695 183.5C207.237 184.458 207.507 185.646 207.507 187.062C207.507 188.938 207.216 190.667 206.632 192.25C206.091 193.792 205.382 195.271 204.507 196.688C203.632 198.062 202.674 199.396 201.632 200.688C200.591 201.938 199.591 203.229 198.632 204.562C197.716 205.854 196.903 207.208 196.195 208.625C195.528 210.042 195.112 211.583 194.945 213.25C194.945 213.333 194.924 213.417 194.882 213.5C194.882 213.583 194.882 213.667 194.882 213.75C194.882 214.583 195.153 215.104 195.695 215.312C196.278 215.521 197.007 215.625 197.882 215.625C199.007 215.625 200.216 215.417 201.507 215C202.799 214.542 204.091 213.958 205.382 213.25C206.716 212.5 208.028 211.667 209.32 210.75C210.653 209.833 211.903 208.896 213.07 207.938C214.278 206.979 215.382 206.062 216.382 205.188C217.382 204.271 218.237 203.479 218.945 202.812C219.32 202.479 219.716 202.229 220.132 202.062C220.549 201.896 220.945 201.812 221.32 201.812C222.07 201.812 222.695 202.104 223.195 202.688C223.737 203.229 224.007 203.979 224.007 204.938C224.007 205.812 223.695 206.812 223.07 207.938C222.487 209.062 221.466 210.188 220.007 211.312C217.716 213.312 215.382 215.229 213.007 217.062C210.632 218.896 208.237 220.521 205.82 221.938C203.403 223.354 200.987 224.479 198.57 225.312C196.195 226.146 193.862 226.562 191.57 226.562C188.612 226.562 186.237 225.896 184.445 224.562C182.653 223.188 181.757 221.042 181.757 218.125C181.757 216 182.112 214 182.82 212.125C183.57 210.208 184.466 208.375 185.507 206.625C186.591 204.833 187.737 203.125 188.945 201.5C190.153 199.833 191.216 198.208 192.132 196.625C192.632 195.917 193.007 195.271 193.257 194.688C193.549 194.062 193.695 193.396 193.695 192.688C193.695 192.062 193.528 191.562 193.195 191.188C192.862 190.771 192.341 190.562 191.632 190.562C189.174 190.562 186.903 191.167 184.82 192.375C182.737 193.583 180.82 195.125 179.07 197C177.32 198.875 175.695 200.938 174.195 203.188C172.695 205.396 171.299 207.521 170.007 209.562C169.424 210.479 168.82 211.542 168.195 212.75C167.612 213.917 166.987 215.125 166.32 216.375C165.695 217.625 165.028 218.875 164.32 220.125C163.612 221.333 162.862 222.417 162.07 223.375C161.32 224.333 160.507 225.104 159.632 225.688C158.799 226.271 157.924 226.562 157.007 226.562C155.549 226.562 154.424 226.125 153.632 225.25C152.841 224.417 152.445 223.354 152.445 222.062C152.445 221.104 152.612 220.104 152.945 219.062C153.278 217.979 153.82 216.667 154.57 215.125ZM245.222 190.875C243.264 190.875 241.368 191.375 239.535 192.375C237.702 193.375 236.077 194.688 234.66 196.312C233.243 197.938 232.118 199.771 231.285 201.812C230.452 203.812 230.035 205.833 230.035 207.875C230.035 208.708 230.077 209.583 230.16 210.5C230.285 211.375 230.535 212.188 230.91 212.938C231.285 213.688 231.806 214.312 232.472 214.812C233.181 215.312 234.118 215.562 235.285 215.562C236.202 215.562 237.264 215.167 238.472 214.375C239.722 213.542 240.993 212.5 242.285 211.25C243.618 209.958 244.91 208.562 246.16 207.062C247.41 205.521 248.535 204.021 249.535 202.562C250.535 201.104 251.347 199.792 251.972 198.625C252.597 197.458 252.91 196.604 252.91 196.062C252.91 195.271 252.639 194.562 252.097 193.938C251.556 193.271 250.889 192.708 250.097 192.25C249.306 191.792 248.452 191.458 247.535 191.25C246.66 191 245.889 190.875 245.222 190.875ZM288.535 207C287.785 207.708 286.785 208.688 285.535 209.938C284.285 211.188 282.847 212.542 281.222 214C279.639 215.458 277.931 216.938 276.097 218.438C274.306 219.896 272.452 221.229 270.535 222.438C268.66 223.646 266.806 224.625 264.972 225.375C263.139 226.167 261.41 226.562 259.785 226.562C258.327 226.562 257.077 226.25 256.035 225.625C254.993 225 254.118 224.188 253.41 223.188C252.743 222.188 252.243 221.062 251.91 219.812C251.577 218.521 251.41 217.208 251.41 215.875C251.41 215 251.472 214.146 251.597 213.312C251.722 212.438 251.931 211.625 252.222 210.875C250.931 212.625 249.452 214.438 247.785 216.312C246.16 218.146 244.389 219.833 242.472 221.375C240.597 222.875 238.618 224.104 236.535 225.062C234.493 226.062 232.41 226.562 230.285 226.562C229.202 226.562 227.931 226.333 226.472 225.875C225.056 225.458 223.702 224.75 222.41 223.75C221.118 222.75 220.035 221.458 219.16 219.875C218.285 218.292 217.847 216.354 217.847 214.062C217.847 212.354 218.097 210.312 218.597 207.938C219.139 205.562 219.931 203.104 220.972 200.562C222.056 197.979 223.41 195.438 225.035 192.938C226.702 190.438 228.66 188.208 230.91 186.25C233.16 184.25 235.722 182.646 238.597 181.438C241.472 180.188 244.681 179.562 248.222 179.562C250.056 179.562 251.66 179.792 253.035 180.25C254.41 180.708 255.577 181.208 256.535 181.75C257.618 182.417 258.577 183.146 259.41 183.938C260.118 183.562 260.847 183.208 261.597 182.875C262.222 182.583 262.868 182.333 263.535 182.125C264.243 181.875 264.847 181.75 265.347 181.75C266.931 181.75 268.222 182.188 269.222 183.062C270.222 183.938 270.722 184.896 270.722 185.938C270.722 186.229 270.702 186.458 270.66 186.625C270.452 187.417 270.118 188.417 269.66 189.625C269.243 190.833 268.764 192.188 268.222 193.688C267.681 195.146 267.118 196.688 266.535 198.312C265.993 199.896 265.493 201.458 265.035 203C264.577 204.542 264.202 206 263.91 207.375C263.618 208.708 263.472 209.854 263.472 210.812C263.472 212.062 263.681 213.104 264.097 213.938C264.514 214.729 265.222 215.125 266.222 215.125C266.847 215.125 267.577 214.938 268.41 214.562C269.285 214.146 270.222 213.604 271.222 212.938C272.222 212.271 273.243 211.521 274.285 210.688C275.368 209.812 276.41 208.938 277.41 208.062C279.743 205.979 282.222 203.604 284.847 200.938C285.514 200.396 286.16 200.125 286.785 200.125C287.618 200.125 288.306 200.542 288.847 201.375C289.431 202.167 289.722 203.062 289.722 204.062C289.722 205.229 289.327 206.208 288.535 207ZM307.688 188.562C309.312 187.562 310.979 186.646 312.688 185.812C314.438 184.979 316.125 184.271 317.75 183.688C319.375 183.062 320.917 182.583 322.375 182.25C323.875 181.875 325.208 181.688 326.375 181.688C328.25 181.688 329.688 182.146 330.688 183.062C331.729 183.938 332.25 185.438 332.25 187.562C332.25 188.021 332.229 188.521 332.188 189.062C332.146 189.562 332.062 190.104 331.938 190.688C331.729 191.771 331.104 193.042 330.062 194.5C329.021 195.958 327.792 197.479 326.375 199.062C325 200.646 323.5 202.25 321.875 203.875C320.292 205.458 318.812 206.938 317.438 208.312C316.104 209.646 314.979 210.812 314.062 211.812C313.188 212.812 312.75 213.5 312.75 213.875C312.75 214.208 312.771 214.438 312.812 214.562C312.854 214.688 313.042 214.75 313.375 214.75C315.625 213.792 318.125 212.646 320.875 211.312C323.667 209.938 326.438 208.542 329.188 207.125C331.938 205.708 334.542 204.333 337 203C339.458 201.625 341.542 200.438 343.25 199.438C343.625 199.229 344 199.062 344.375 198.938C344.792 198.771 345.167 198.688 345.5 198.688C346.25 198.688 346.875 198.938 347.375 199.438C347.875 199.938 348.125 200.604 348.125 201.438C348.125 202.396 347.708 203.5 346.875 204.75C346.083 205.958 344.729 207.229 342.812 208.562C341.354 209.479 339.708 210.521 337.875 211.688C336.083 212.812 334.188 214 332.188 215.25C330.229 216.458 328.229 217.646 326.188 218.812C324.188 219.979 322.25 221.021 320.375 221.938C318.5 222.854 316.729 223.604 315.062 224.188C313.438 224.729 312.021 225 310.812 225C307.938 225 305.771 224.312 304.312 222.938C302.896 221.562 302.188 219.792 302.188 217.625C302.188 217.292 302.208 217.042 302.25 216.875C302.542 215.042 303.083 213.271 303.875 211.562C304.667 209.854 305.562 208.229 306.562 206.688C307.562 205.146 308.604 203.688 309.688 202.312C310.771 200.896 311.75 199.583 312.625 198.375C313.542 197.125 314.292 195.979 314.875 194.938C315.458 193.896 315.75 192.938 315.75 192.062C315.75 191.854 315.708 191.646 315.625 191.438C315.542 191.229 315.354 191.125 315.062 191.125C314.562 191.125 313.729 191.312 312.562 191.688C311.438 192.062 310.229 192.562 308.938 193.188C307.646 193.812 306.417 194.542 305.25 195.375C304.083 196.167 303.25 197.021 302.75 197.938C302.083 199.104 301.312 200.583 300.438 202.375C299.562 204.167 298.646 206.042 297.688 208C296.771 209.958 295.875 211.896 295 213.812C294.125 215.729 293.375 217.375 292.75 218.75C292.25 219.958 291.583 221.042 290.75 222C289.958 222.958 289.083 223.771 288.125 224.438C287.167 225.104 286.188 225.625 285.188 226C284.188 226.375 283.271 226.562 282.438 226.562C281.479 226.562 280.708 226.312 280.125 225.812C279.583 225.312 279.312 224.5 279.312 223.375C279.312 222.917 279.375 222.354 279.5 221.688C279.667 220.979 279.979 220.208 280.438 219.375C281.188 217.958 281.938 216.417 282.688 214.75C283.479 213.083 284.375 211.188 285.375 209.062C286.375 206.896 287.521 204.438 288.812 201.688C290.146 198.896 291.708 195.688 293.5 192.062C292.917 191.562 292.417 190.958 292 190.25C291.625 189.5 291.438 188.583 291.438 187.5C291.438 186.5 291.646 185.646 292.062 184.938C292.479 184.188 293.042 183.583 293.75 183.125C294.458 182.667 295.271 182.333 296.188 182.125C297.146 181.875 298.146 181.75 299.188 181.75C300.271 181.75 301.354 181.854 302.438 182.062C303.521 182.229 304.479 182.5 305.312 182.875C306.188 183.25 306.896 183.708 307.438 184.25C307.979 184.792 308.25 185.417 308.25 186.125C308.25 186.25 308.208 186.417 308.125 186.625C308.042 186.833 307.938 187.062 307.812 187.312C307.729 187.562 307.646 187.792 307.562 188C307.479 188.208 307.438 188.375 307.438 188.5C307.438 188.583 307.458 188.625 307.5 188.625H307.562L307.688 188.562ZM352.965 206.938C352.507 207.896 352.048 209.021 351.59 210.312C351.173 211.562 350.965 212.688 350.965 213.688C350.965 214.312 351.09 214.812 351.34 215.188C351.59 215.562 352.069 215.75 352.777 215.75C353.652 215.75 354.736 215.5 356.027 215C357.361 214.458 358.777 213.771 360.277 212.938C361.819 212.062 363.402 211.083 365.027 210C366.694 208.875 368.34 207.729 369.965 206.562C371.59 205.354 373.132 204.167 374.59 203C376.09 201.792 377.423 200.688 378.59 199.688C378.923 199.396 379.319 199.188 379.777 199.062C380.236 198.938 380.632 198.875 380.965 198.875C381.798 198.875 382.486 199.167 383.027 199.75C383.569 200.333 383.84 201.104 383.84 202.062C383.84 202.938 383.548 203.917 382.965 205C382.382 206.083 381.361 207.146 379.902 208.188C377.236 210.646 374.548 212.979 371.84 215.188C369.132 217.396 366.423 219.354 363.715 221.062C361.048 222.729 358.382 224.062 355.715 225.062C353.09 226.062 350.527 226.562 348.027 226.562C346.319 226.562 344.882 226.333 343.715 225.875C342.59 225.417 341.673 224.792 340.965 224C340.298 223.208 339.819 222.271 339.527 221.188C339.236 220.104 339.09 218.958 339.09 217.75C339.09 215.708 339.382 213.625 339.965 211.5C340.59 209.333 341.319 207.354 342.152 205.562C343.611 202.312 345.09 199.083 346.59 195.875C348.09 192.667 349.465 189.729 350.715 187.062L369.652 146.75C370.402 145.125 371.402 143.979 372.652 143.312C373.944 142.646 375.236 142.312 376.527 142.312C377.819 142.312 378.986 142.667 380.027 143.375C381.111 144.083 381.652 145.229 381.652 146.812C381.652 147.562 381.465 148.354 381.09 149.188C380.757 150.021 380.319 150.917 379.777 151.875C378.736 153.833 377.486 156.229 376.027 159.062C374.611 161.896 373.069 164.979 371.402 168.312C369.777 171.646 368.09 175.125 366.34 178.75C364.632 182.333 362.944 185.833 361.277 189.25C359.652 192.667 358.111 195.917 356.652 199C355.236 202.042 354.007 204.688 352.965 206.938ZM405.117 188.125C404.909 188.083 404.722 188.062 404.555 188.062C404.388 188.062 404.201 188.062 403.992 188.062C402.409 188.062 400.93 188.375 399.555 189C398.18 189.625 396.909 190.458 395.742 191.5C394.617 192.5 393.597 193.646 392.68 194.938C391.805 196.229 391.013 197.521 390.305 198.812C389.597 200.062 388.992 201.271 388.492 202.438C388.034 203.604 387.68 204.583 387.43 205.375C388.888 204.625 390.388 203.771 391.93 202.812C393.513 201.854 394.992 200.938 396.367 200.062C397.742 199.188 398.93 198.396 399.93 197.688C400.972 196.979 401.701 196.5 402.117 196.25C403.992 195.083 405.284 194 405.992 193C406.701 191.958 407.055 191.062 407.055 190.312C407.055 189.688 406.847 189.188 406.43 188.812C406.055 188.438 405.617 188.208 405.117 188.125ZM407.367 179.5C410.826 179.5 413.409 180.333 415.117 182C416.826 183.667 417.68 185.979 417.68 188.938C417.68 190.688 417.222 192.521 416.305 194.438C415.388 196.354 413.805 198.312 411.555 200.312C409.305 202.271 406.284 204.292 402.492 206.375C398.742 208.417 394.034 210.479 388.367 212.562C388.576 213.771 389.222 214.729 390.305 215.438C391.388 216.104 392.826 216.438 394.617 216.438C396.534 216.438 398.576 216.167 400.742 215.625C402.951 215.042 405.117 214.312 407.242 213.438C409.409 212.562 411.513 211.625 413.555 210.625C415.597 209.583 417.43 208.604 419.055 207.688C420.722 206.771 422.097 205.979 423.18 205.312C424.305 204.646 425.055 204.229 425.43 204.062C425.805 203.812 426.138 203.667 426.43 203.625C426.763 203.583 427.055 203.562 427.305 203.562C427.805 203.562 428.222 203.688 428.555 203.938C428.888 204.146 429.159 204.417 429.367 204.75C429.617 205.042 429.784 205.375 429.867 205.75C429.951 206.083 429.992 206.375 429.992 206.625C429.992 207 429.951 207.458 429.867 208C429.784 208.5 429.472 209.083 428.93 209.75C428.722 209.958 428.013 210.521 426.805 211.438C425.638 212.354 424.117 213.438 422.242 214.688C420.367 215.938 418.18 217.271 415.68 218.688C413.222 220.062 410.597 221.333 407.805 222.5C405.055 223.667 402.18 224.625 399.18 225.375C396.18 226.167 393.222 226.562 390.305 226.562C387.805 226.562 385.576 226.083 383.617 225.125C381.701 224.167 380.055 222.875 378.68 221.25C377.347 219.625 376.326 217.75 375.617 215.625C374.909 213.5 374.555 211.271 374.555 208.938C374.555 207.146 374.909 205.188 375.617 203.062C376.326 200.896 377.347 198.729 378.68 196.562C380.013 194.396 381.638 192.292 383.555 190.25C385.513 188.167 387.701 186.333 390.117 184.75C392.534 183.167 395.18 181.896 398.055 180.938C400.972 179.979 404.076 179.5 407.367 179.5ZM445.083 189.812C447.624 191.146 449.895 192.667 451.895 194.375C453.895 196.083 455.583 197.896 456.958 199.812C458.374 201.688 459.437 203.604 460.145 205.562C460.895 207.521 461.27 209.438 461.27 211.312C461.27 213.688 460.583 215.833 459.208 217.75C457.874 219.625 456.103 221.229 453.895 222.562C451.728 223.854 449.228 224.833 446.395 225.5C443.603 226.208 440.77 226.562 437.895 226.562C435.728 226.562 433.624 226.312 431.583 225.812C429.541 225.354 427.666 224.625 425.958 223.625C424.291 222.625 422.853 221.354 421.645 219.812C420.437 218.229 419.583 216.354 419.083 214.188C418.999 213.854 418.958 213.583 418.958 213.375C418.958 212.25 419.353 211.292 420.145 210.5C420.937 209.667 421.812 209.25 422.77 209.25C423.228 209.25 423.728 209.333 424.27 209.5C424.853 209.667 425.291 210.042 425.583 210.625C426.124 211.625 426.874 212.521 427.833 213.312C428.833 214.104 429.937 214.792 431.145 215.375C432.353 215.917 433.624 216.354 434.958 216.688C436.333 216.979 437.666 217.125 438.958 217.125C440.291 217.125 441.562 217 442.77 216.75C444.02 216.5 445.103 216.104 446.02 215.562C446.978 215.021 447.728 214.333 448.27 213.5C448.812 212.667 449.083 211.646 449.083 210.438C449.083 208.312 448.603 206.354 447.645 204.562C446.687 202.771 445.437 201.125 443.895 199.625C442.395 198.083 440.666 196.667 438.708 195.375C436.791 194.042 434.874 192.771 432.958 191.562C432.749 191.438 432.437 191.083 432.02 190.5C431.603 189.875 431.395 189.25 431.395 188.625C431.395 188.125 431.52 187.729 431.77 187.438C432.437 186.562 433.208 185.667 434.083 184.75C434.958 183.833 435.895 183 436.895 182.25C437.895 181.458 438.978 180.833 440.145 180.375C441.312 179.875 442.52 179.625 443.77 179.625C444.687 179.625 445.541 179.75 446.333 180C447.124 180.25 447.791 180.583 448.333 181C448.874 181.375 449.291 181.812 449.583 182.312C449.916 182.771 450.083 183.208 450.083 183.625C450.083 184.208 449.937 184.771 449.645 185.312C449.353 185.854 448.958 186.375 448.458 186.875C447.999 187.375 447.458 187.875 446.833 188.375C446.249 188.875 445.666 189.354 445.083 189.812Z" fill="black"/>
</svg>
