<svg width="500" height="250" viewBox="0 0 500 250" fill="none" xmlns="http://www.w3.org/2000/svg">
<path d="M126.125 120.062C126.125 121.188 125.938 122.542 125.562 124.125C125.229 125.708 124.729 127.354 124.062 129.062C123.396 130.771 122.583 132.479 121.625 134.188C120.708 135.854 119.646 137.375 118.438 138.75C117.229 140.083 115.917 141.167 114.5 142C113.083 142.833 111.562 143.25 109.938 143.25C109.562 143.25 109.062 143.229 108.438 143.188C107.854 143.104 107.25 142.958 106.625 142.75C106.042 142.5 105.521 142.146 105.062 141.688C104.646 141.229 104.438 140.625 104.438 139.875C104.438 139.375 104.562 138.792 104.812 138.125C105.104 137.458 105.604 136.688 106.312 135.812C107.062 134.979 107.875 134 108.75 132.875C109.625 131.708 110.417 130.5 111.125 129.25C111.833 128 112.417 126.771 112.875 125.562C113.375 124.354 113.625 123.271 113.625 122.312C113.625 121.104 113.333 120.146 112.75 119.438C112.208 118.688 111.25 118.312 109.875 118.312C108.083 118.312 106.062 118.896 103.812 120.062C101.562 121.229 99.2083 122.833 96.75 124.875C94.2917 126.917 91.7917 129.312 89.25 132.062C86.7083 134.771 84.25 137.688 81.875 140.812C79.5 143.896 77.25 147.125 75.125 150.5C73.0417 153.833 71.2083 157.146 69.625 160.438C68.0833 163.688 66.8542 166.833 65.9375 169.875C65.0625 172.875 64.625 175.604 64.625 178.062C64.625 181.104 65.4375 183.542 67.0625 185.375C68.6875 187.208 71.375 188.125 75.125 188.125C76.875 188.125 79.4792 187.458 82.9375 186.125C86.3958 184.75 89.2708 183.396 91.5625 182.062C93.8958 180.688 96.2292 179.188 98.5625 177.562C100.938 175.896 103.188 174.312 105.312 172.812C107.438 171.271 109.375 169.896 111.125 168.688C112.875 167.438 114.312 166.562 115.438 166.062C115.646 165.896 115.896 165.812 116.188 165.812C116.812 165.812 117.229 166.333 117.438 167.375C117.688 168.375 117.812 169.521 117.812 170.812C117.812 171.521 117.708 172.396 117.5 173.438C117.333 174.438 116.75 175.604 115.75 176.938C115.292 177.479 114.438 178.396 113.188 179.688C111.938 180.979 110.375 182.438 108.5 184.062C106.625 185.688 104.479 187.375 102.062 189.125C99.6458 190.875 97.0208 192.479 94.1875 193.938C91.3958 195.396 87.7708 196.833 83.3125 198.25C78.8958 199.667 75.0417 200.375 71.75 200.375C67.875 200.375 64.5625 199.917 61.8125 199C59.0625 198.042 56.8125 196.729 55.0625 195.062C53.3125 193.396 52.0208 191.417 51.1875 189.125C50.3958 186.792 50 184.25 50 181.5C50 178.083 50.5208 174.417 51.5625 170.5C52.6042 166.583 54.0417 162.604 55.875 158.562C57.75 154.521 59.9583 150.479 62.5 146.438C65.0833 142.396 67.8958 138.542 70.9375 134.875C74.0208 131.167 77.2917 127.729 80.75 124.562C84.2083 121.396 87.75 118.646 91.375 116.312C95 113.979 98.6458 112.146 102.312 110.812C105.979 109.479 109.583 108.812 113.125 108.812C114.875 108.812 116.542 109.021 118.125 109.438C119.708 109.812 121.083 110.438 122.25 111.312C123.458 112.188 124.396 113.354 125.062 114.812C125.771 116.229 126.125 117.979 126.125 120.062ZM137.125 164.875C135.167 164.875 133.271 165.375 131.438 166.375C129.604 167.375 127.979 168.688 126.562 170.312C125.146 171.938 124.021 173.771 123.188 175.812C122.354 177.812 121.938 179.833 121.938 181.875C121.938 182.708 121.979 183.583 122.062 184.5C122.188 185.375 122.438 186.188 122.812 186.938C123.188 187.688 123.708 188.312 124.375 188.812C125.083 189.312 126.021 189.562 127.188 189.562C128.104 189.562 129.167 189.167 130.375 188.375C131.625 187.542 132.896 186.5 134.188 185.25C135.521 183.958 136.812 182.562 138.062 181.062C139.312 179.521 140.438 178.021 141.438 176.562C142.438 175.104 143.25 173.792 143.875 172.625C144.5 171.458 144.812 170.604 144.812 170.062C144.812 169.271 144.542 168.562 144 167.938C143.458 167.271 142.792 166.708 142 166.25C141.208 165.792 140.354 165.458 139.438 165.25C138.562 165 137.792 164.875 137.125 164.875ZM180.438 181C179.688 181.708 178.688 182.688 177.438 183.938C176.188 185.188 174.75 186.542 173.125 188C171.542 189.458 169.833 190.938 168 192.438C166.208 193.896 164.354 195.229 162.438 196.438C160.562 197.646 158.708 198.625 156.875 199.375C155.042 200.167 153.312 200.562 151.688 200.562C150.229 200.562 148.979 200.25 147.938 199.625C146.896 199 146.021 198.188 145.312 197.188C144.646 196.188 144.146 195.062 143.812 193.812C143.479 192.521 143.312 191.208 143.312 189.875C143.312 189 143.375 188.146 143.5 187.312C143.625 186.438 143.833 185.625 144.125 184.875C142.833 186.625 141.354 188.438 139.688 190.312C138.062 192.146 136.292 193.833 134.375 195.375C132.5 196.875 130.521 198.104 128.438 199.062C126.396 200.062 124.312 200.562 122.188 200.562C121.104 200.562 119.833 200.333 118.375 199.875C116.958 199.458 115.604 198.75 114.312 197.75C113.021 196.75 111.938 195.458 111.062 193.875C110.188 192.292 109.75 190.354 109.75 188.062C109.75 186.354 110 184.312 110.5 181.938C111.042 179.562 111.833 177.104 112.875 174.562C113.958 171.979 115.312 169.438 116.938 166.938C118.604 164.438 120.562 162.208 122.812 160.25C125.062 158.25 127.625 156.646 130.5 155.438C133.375 154.188 136.583 153.562 140.125 153.562C141.958 153.562 143.562 153.792 144.938 154.25C146.312 154.708 147.479 155.208 148.438 155.75C149.521 156.417 150.479 157.146 151.312 157.938C152.021 157.562 152.75 157.208 153.5 156.875C154.125 156.583 154.771 156.333 155.438 156.125C156.146 155.875 156.75 155.75 157.25 155.75C158.833 155.75 160.125 156.188 161.125 157.062C162.125 157.938 162.625 158.896 162.625 159.938C162.625 160.229 162.604 160.458 162.562 160.625C162.354 161.417 162.021 162.417 161.562 163.625C161.146 164.833 160.667 166.188 160.125 167.688C159.583 169.146 159.021 170.688 158.438 172.312C157.896 173.896 157.396 175.458 156.938 177C156.479 178.542 156.104 180 155.812 181.375C155.521 182.708 155.375 183.854 155.375 184.812C155.375 186.062 155.583 187.104 156 187.938C156.417 188.729 157.125 189.125 158.125 189.125C158.75 189.125 159.479 188.938 160.312 188.562C161.188 188.146 162.125 187.604 163.125 186.938C164.125 186.271 165.146 185.521 166.188 184.688C167.271 183.812 168.312 182.938 169.312 182.062C171.646 179.979 174.125 177.604 176.75 174.938C177.417 174.396 178.062 174.125 178.688 174.125C179.521 174.125 180.208 174.542 180.75 175.375C181.333 176.167 181.625 177.062 181.625 178.062C181.625 179.229 181.229 180.208 180.438 181ZM202.938 153.562C204.771 153.562 206.375 153.792 207.75 154.25C209.125 154.708 210.292 155.208 211.25 155.75C212.333 156.417 213.292 157.146 214.125 157.938C214.708 157.562 215.333 157.208 216 156.875C216.583 156.583 217.229 156.333 217.938 156.125C218.646 155.875 219.354 155.75 220.062 155.75C221.896 155.75 223.312 156.125 224.312 156.875C225.312 157.625 225.812 158.521 225.812 159.562C225.812 160.104 225.667 160.646 225.375 161.188L210.75 188.875L211.938 187.812C216.854 184.938 220.896 182.688 224.062 181.062C227.229 179.396 229.75 178.167 231.625 177.375C233.5 176.583 234.833 176.104 235.625 175.938C236.458 175.729 236.979 175.625 237.188 175.625C238.146 175.625 238.875 176 239.375 176.75C239.917 177.458 240.188 178.354 240.188 179.438C240.188 180.646 239.833 181.875 239.125 183.125C238.458 184.375 237.417 185.271 236 185.812C234.125 186.771 231.938 187.812 229.438 188.938C226.938 190.021 224.333 191.229 221.625 192.562C218.917 193.896 216.188 195.396 213.438 197.062C210.729 198.688 208.188 200.5 205.812 202.5L193.688 224.438C192.688 226.812 191.771 228.75 190.938 230.25C190.146 231.75 189.354 232.938 188.562 233.812C187.771 234.688 186.958 235.292 186.125 235.625C185.292 235.958 184.333 236.125 183.25 236.125C181.625 236.125 180.333 235.562 179.375 234.438C178.458 233.312 178 231.958 178 230.375C178 228.708 178.396 226.771 179.188 224.562C179.979 222.354 181.083 219.958 182.5 217.375C183.958 214.833 185.708 212.146 187.75 209.312C189.792 206.521 192.062 203.667 194.562 200.75L202.312 190.875C200.729 192.333 199.167 193.583 197.625 194.625C196.083 195.667 194.604 196.521 193.188 197.188C191.771 197.812 190.438 198.271 189.188 198.562C187.979 198.854 186.917 199 186 199C184.333 199 182.792 198.625 181.375 197.875C179.958 197.083 178.729 196 177.688 194.625C176.688 193.25 175.896 191.625 175.312 189.75C174.729 187.875 174.438 185.833 174.438 183.625C174.438 179.042 175.312 174.896 177.062 171.188C178.854 167.479 181.125 164.333 183.875 161.75C186.667 159.125 189.729 157.104 193.062 155.688C196.438 154.271 199.729 153.562 202.938 153.562ZM200.562 164.562C198.604 164.562 196.708 165.062 194.875 166.062C193.042 167.021 191.417 168.312 190 169.938C188.583 171.521 187.458 173.354 186.625 175.438C185.792 177.521 185.375 179.667 185.375 181.875C185.375 182.542 185.417 183.271 185.5 184.062C185.625 184.812 185.854 185.521 186.188 186.188C186.562 186.854 187.083 187.417 187.75 187.875C188.458 188.292 189.417 188.5 190.625 188.5C191.5 188.5 192.521 188.125 193.688 187.375C194.896 186.583 196.125 185.604 197.375 184.438C198.667 183.229 199.917 181.917 201.125 180.5C202.333 179.042 203.417 177.625 204.375 176.25C205.375 174.875 206.167 173.646 206.75 172.562C207.333 171.438 207.625 170.604 207.625 170.062C207.625 169.146 207.375 168.354 206.875 167.688C206.375 166.979 205.75 166.396 205 165.938C204.292 165.479 203.521 165.146 202.688 164.938C201.896 164.688 201.188 164.562 200.562 164.562ZM248 144.938C248 143.979 248.167 143 248.5 142C248.875 140.958 249.417 140.021 250.125 139.188C250.833 138.354 251.708 137.667 252.75 137.125C253.833 136.583 255.104 136.312 256.562 136.312C258.979 136.312 260.667 136.792 261.625 137.75C262.583 138.667 263.062 139.833 263.062 141.25C263.062 142.042 262.896 142.917 262.562 143.875C262.271 144.833 261.812 145.729 261.188 146.562C260.562 147.354 259.75 148.021 258.75 148.562C257.75 149.104 256.562 149.375 255.188 149.375C252.604 149.375 250.792 148.979 249.75 148.188C248.708 147.354 248.125 146.271 248 144.938ZM241.125 159C241.833 157.833 242.646 157 243.562 156.5C244.479 156 245.417 155.75 246.375 155.75C247.958 155.75 249.312 156.271 250.438 157.312C251.604 158.312 252.188 159.604 252.188 161.188C252.146 161.562 252.083 161.938 252 162.312C251.958 162.688 251.833 163.062 251.625 163.438C251.042 164.521 250.562 165.438 250.188 166.188C249.812 166.938 249.458 167.646 249.125 168.312C248.833 168.938 248.542 169.562 248.25 170.188C247.958 170.812 247.604 171.562 247.188 172.438C246.688 173.479 246.125 174.625 245.5 175.875C244.875 177.083 244.271 178.333 243.688 179.625C243.146 180.917 242.667 182.188 242.25 183.438C241.875 184.688 241.688 185.833 241.688 186.875C241.688 188 241.958 188.75 242.5 189.125C243.083 189.458 243.896 189.625 244.938 189.625C246.104 189.625 247.312 189.375 248.562 188.875C249.854 188.375 251.146 187.729 252.438 186.938C253.729 186.146 255 185.25 256.25 184.25C257.5 183.208 258.667 182.167 259.75 181.125C260.875 180.083 261.896 179.083 262.812 178.125C263.771 177.167 264.562 176.312 265.188 175.562C266.021 174.771 266.854 174.375 267.688 174.375C268.438 174.375 269.042 174.708 269.5 175.375C270 176.042 270.25 176.896 270.25 177.938C270.25 178.896 270 179.917 269.5 181C269.042 182.083 268.271 183.104 267.188 184.062C265.062 186.229 262.896 188.312 260.688 190.312C258.479 192.271 256.208 194.021 253.875 195.562C251.583 197.062 249.271 198.271 246.938 199.188C244.604 200.104 242.25 200.562 239.875 200.562C236.5 200.562 233.833 199.708 231.875 198C229.958 196.25 229 193.542 229 189.875C229 187.958 229.271 186.083 229.812 184.25C230.354 182.417 231 180.646 231.75 178.938C232.5 177.188 233.292 175.521 234.125 173.938C234.958 172.312 235.667 170.771 236.25 169.312C236.458 168.771 236.812 167.938 237.312 166.812C237.854 165.688 238.417 164.542 239 163.375C239.667 162 240.375 160.542 241.125 159ZM291.938 153.562C293.771 153.562 295.375 153.792 296.75 154.25C298.125 154.708 299.292 155.208 300.25 155.75C301.333 156.417 302.292 157.146 303.125 157.938C303.708 157.562 304.333 157.208 305 156.875C305.583 156.583 306.229 156.333 306.938 156.125C307.646 155.875 308.354 155.75 309.062 155.75C310.896 155.75 312.312 156.125 313.312 156.875C314.312 157.625 314.812 158.521 314.812 159.562C314.812 160.104 314.667 160.646 314.375 161.188L299.75 188.875L300.938 187.812C305.854 184.938 309.896 182.688 313.062 181.062C316.229 179.396 318.75 178.167 320.625 177.375C322.5 176.583 323.833 176.104 324.625 175.938C325.458 175.729 325.979 175.625 326.188 175.625C327.146 175.625 327.875 176 328.375 176.75C328.917 177.458 329.188 178.354 329.188 179.438C329.188 180.646 328.833 181.875 328.125 183.125C327.458 184.375 326.417 185.271 325 185.812C323.125 186.771 320.938 187.812 318.438 188.938C315.938 190.021 313.333 191.229 310.625 192.562C307.917 193.896 305.188 195.396 302.438 197.062C299.729 198.688 297.188 200.5 294.812 202.5L282.688 224.438C281.688 226.812 280.771 228.75 279.938 230.25C279.146 231.75 278.354 232.938 277.562 233.812C276.771 234.688 275.958 235.292 275.125 235.625C274.292 235.958 273.333 236.125 272.25 236.125C270.625 236.125 269.333 235.562 268.375 234.438C267.458 233.312 267 231.958 267 230.375C267 228.708 267.396 226.771 268.188 224.562C268.979 222.354 270.083 219.958 271.5 217.375C272.958 214.833 274.708 212.146 276.75 209.312C278.792 206.521 281.062 203.667 283.562 200.75L291.312 190.875C289.729 192.333 288.167 193.583 286.625 194.625C285.083 195.667 283.604 196.521 282.188 197.188C280.771 197.812 279.438 198.271 278.188 198.562C276.979 198.854 275.917 199 275 199C273.333 199 271.792 198.625 270.375 197.875C268.958 197.083 267.729 196 266.688 194.625C265.688 193.25 264.896 191.625 264.312 189.75C263.729 187.875 263.438 185.833 263.438 183.625C263.438 179.042 264.312 174.896 266.062 171.188C267.854 167.479 270.125 164.333 272.875 161.75C275.667 159.125 278.729 157.104 282.062 155.688C285.438 154.271 288.729 153.562 291.938 153.562ZM289.562 164.562C287.604 164.562 285.708 165.062 283.875 166.062C282.042 167.021 280.417 168.312 279 169.938C277.583 171.521 276.458 173.354 275.625 175.438C274.792 177.521 274.375 179.667 274.375 181.875C274.375 182.542 274.417 183.271 274.5 184.062C274.625 184.812 274.854 185.521 275.188 186.188C275.562 186.854 276.083 187.417 276.75 187.875C277.458 188.292 278.417 188.5 279.625 188.5C280.5 188.5 281.521 188.125 282.688 187.375C283.896 186.583 285.125 185.604 286.375 184.438C287.667 183.229 288.917 181.917 290.125 180.5C291.333 179.042 292.417 177.625 293.375 176.25C294.375 174.875 295.167 173.646 295.75 172.562C296.333 171.438 296.625 170.604 296.625 170.062C296.625 169.146 296.375 168.354 295.875 167.688C295.375 166.979 294.75 166.396 294 165.938C293.292 165.479 292.521 165.146 291.688 164.938C290.896 164.688 290.188 164.562 289.562 164.562ZM346.625 164.875C344.667 164.875 342.771 165.375 340.938 166.375C339.104 167.375 337.479 168.688 336.062 170.312C334.646 171.938 333.521 173.771 332.688 175.812C331.854 177.812 331.438 179.833 331.438 181.875C331.438 182.708 331.479 183.583 331.562 184.5C331.688 185.375 331.938 186.188 332.312 186.938C332.688 187.688 333.208 188.312 333.875 188.812C334.583 189.312 335.521 189.562 336.688 189.562C337.604 189.562 338.667 189.167 339.875 188.375C341.125 187.542 342.396 186.5 343.688 185.25C345.021 183.958 346.312 182.562 347.562 181.062C348.812 179.521 349.938 178.021 350.938 176.562C351.938 175.104 352.75 173.792 353.375 172.625C354 171.458 354.312 170.604 354.312 170.062C354.312 169.271 354.042 168.562 353.5 167.938C352.958 167.271 352.292 166.708 351.5 166.25C350.708 165.792 349.854 165.458 348.938 165.25C348.062 165 347.292 164.875 346.625 164.875ZM389.938 181C389.188 181.708 388.188 182.688 386.938 183.938C385.688 185.188 384.25 186.542 382.625 188C381.042 189.458 379.333 190.938 377.5 192.438C375.708 193.896 373.854 195.229 371.938 196.438C370.062 197.646 368.208 198.625 366.375 199.375C364.542 200.167 362.812 200.562 361.188 200.562C359.729 200.562 358.479 200.25 357.438 199.625C356.396 199 355.521 198.188 354.812 197.188C354.146 196.188 353.646 195.062 353.312 193.812C352.979 192.521 352.812 191.208 352.812 189.875C352.812 189 352.875 188.146 353 187.312C353.125 186.438 353.333 185.625 353.625 184.875C352.333 186.625 350.854 188.438 349.188 190.312C347.562 192.146 345.792 193.833 343.875 195.375C342 196.875 340.021 198.104 337.938 199.062C335.896 200.062 333.812 200.562 331.688 200.562C330.604 200.562 329.333 200.333 327.875 199.875C326.458 199.458 325.104 198.75 323.812 197.75C322.521 196.75 321.438 195.458 320.562 193.875C319.688 192.292 319.25 190.354 319.25 188.062C319.25 186.354 319.5 184.312 320 181.938C320.542 179.562 321.333 177.104 322.375 174.562C323.458 171.979 324.812 169.438 326.438 166.938C328.104 164.438 330.062 162.208 332.312 160.25C334.562 158.25 337.125 156.646 340 155.438C342.875 154.188 346.083 153.562 349.625 153.562C351.458 153.562 353.062 153.792 354.438 154.25C355.812 154.708 356.979 155.208 357.938 155.75C359.021 156.417 359.979 157.146 360.812 157.938C361.521 157.562 362.25 157.208 363 156.875C363.625 156.583 364.271 156.333 364.938 156.125C365.646 155.875 366.25 155.75 366.75 155.75C368.333 155.75 369.625 156.188 370.625 157.062C371.625 157.938 372.125 158.896 372.125 159.938C372.125 160.229 372.104 160.458 372.062 160.625C371.854 161.417 371.521 162.417 371.062 163.625C370.646 164.833 370.167 166.188 369.625 167.688C369.083 169.146 368.521 170.688 367.938 172.312C367.396 173.896 366.896 175.458 366.438 177C365.979 178.542 365.604 180 365.312 181.375C365.021 182.708 364.875 183.854 364.875 184.812C364.875 186.062 365.083 187.104 365.5 187.938C365.917 188.729 366.625 189.125 367.625 189.125C368.25 189.125 368.979 188.938 369.812 188.562C370.688 188.146 371.625 187.604 372.625 186.938C373.625 186.271 374.646 185.521 375.688 184.688C376.771 183.812 377.812 182.938 378.812 182.062C381.146 179.979 383.625 177.604 386.25 174.938C386.917 174.396 387.562 174.125 388.188 174.125C389.021 174.125 389.708 174.542 390.25 175.375C390.833 176.167 391.125 177.062 391.125 178.062C391.125 179.229 390.729 180.208 389.938 181ZM401.375 163.812C403.917 165.146 406.188 166.667 408.188 168.375C410.188 170.083 411.875 171.896 413.25 173.812C414.667 175.688 415.729 177.604 416.438 179.562C417.188 181.521 417.562 183.438 417.562 185.312C417.562 187.688 416.875 189.833 415.5 191.75C414.167 193.625 412.396 195.229 410.188 196.562C408.021 197.854 405.521 198.833 402.688 199.5C399.896 200.208 397.062 200.562 394.188 200.562C392.021 200.562 389.917 200.312 387.875 199.812C385.833 199.354 383.958 198.625 382.25 197.625C380.583 196.625 379.146 195.354 377.938 193.812C376.729 192.229 375.875 190.354 375.375 188.188C375.292 187.854 375.25 187.583 375.25 187.375C375.25 186.25 375.646 185.292 376.438 184.5C377.229 183.667 378.104 183.25 379.062 183.25C379.521 183.25 380.021 183.333 380.562 183.5C381.146 183.667 381.583 184.042 381.875 184.625C382.417 185.625 383.167 186.521 384.125 187.312C385.125 188.104 386.229 188.792 387.438 189.375C388.646 189.917 389.917 190.354 391.25 190.688C392.625 190.979 393.958 191.125 395.25 191.125C396.583 191.125 397.854 191 399.062 190.75C400.312 190.5 401.396 190.104 402.312 189.562C403.271 189.021 404.021 188.333 404.562 187.5C405.104 186.667 405.375 185.646 405.375 184.438C405.375 182.312 404.896 180.354 403.938 178.562C402.979 176.771 401.729 175.125 400.188 173.625C398.688 172.083 396.958 170.667 395 169.375C393.083 168.042 391.167 166.771 389.25 165.562C389.042 165.438 388.729 165.083 388.312 164.5C387.896 163.875 387.688 163.25 387.688 162.625C387.688 162.125 387.812 161.729 388.062 161.438C388.729 160.562 389.5 159.667 390.375 158.75C391.25 157.833 392.188 157 393.188 156.25C394.188 155.458 395.271 154.833 396.438 154.375C397.604 153.875 398.812 153.625 400.062 153.625C400.979 153.625 401.833 153.75 402.625 154C403.417 154.25 404.083 154.583 404.625 155C405.167 155.375 405.583 155.812 405.875 156.312C406.208 156.771 406.375 157.208 406.375 157.625C406.375 158.208 406.229 158.771 405.938 159.312C405.646 159.854 405.25 160.375 404.75 160.875C404.292 161.375 403.75 161.875 403.125 162.375C402.542 162.875 401.958 163.354 401.375 163.812Z" fill="black"/>
<path d="M169.417 21.0625C169.417 22.1875 169.23 23.5417 168.855 25.125C168.522 26.7083 168.022 28.3542 167.355 30.0625C166.688 31.7708 165.876 33.4792 164.917 35.1875C164.001 36.8542 162.938 38.375 161.73 39.75C160.522 41.0833 159.209 42.1667 157.792 43C156.376 43.8333 154.855 44.25 153.23 44.25C152.855 44.25 152.355 44.2292 151.73 44.1875C151.147 44.1042 150.542 43.9583 149.917 43.75C149.334 43.5 148.813 43.1458 148.355 42.6875C147.938 42.2292 147.73 41.625 147.73 40.875C147.73 40.375 147.855 39.7917 148.105 39.125C148.397 38.4583 148.897 37.6875 149.605 36.8125C150.355 35.9792 151.167 35 152.042 33.875C152.917 32.7083 153.709 31.5 154.417 30.25C155.126 29 155.709 27.7708 156.167 26.5625C156.667 25.3542 156.917 24.2708 156.917 23.3125C156.917 22.1042 156.626 21.1458 156.042 20.4375C155.501 19.6875 154.542 19.3125 153.167 19.3125C151.376 19.3125 149.355 19.8958 147.105 21.0625C144.855 22.2292 142.501 23.8333 140.042 25.875C137.584 27.9167 135.084 30.3125 132.542 33.0625C130.001 35.7708 127.542 38.6875 125.167 41.8125C122.792 44.8958 120.542 48.125 118.417 51.5C116.334 54.8333 114.501 58.1458 112.917 61.4375C111.376 64.6875 110.147 67.8333 109.23 70.875C108.355 73.875 107.917 76.6042 107.917 79.0625C107.917 82.1042 108.73 84.5417 110.355 86.375C111.98 88.2083 114.667 89.125 118.417 89.125C120.167 89.125 122.772 88.4583 126.23 87.125C129.688 85.75 132.563 84.3958 134.855 83.0625C137.188 81.6875 139.522 80.1875 141.855 78.5625C144.23 76.8958 146.48 75.3125 148.605 73.8125C150.73 72.2708 152.667 70.8958 154.417 69.6875C156.167 68.4375 157.605 67.5625 158.73 67.0625C158.938 66.8958 159.188 66.8125 159.48 66.8125C160.105 66.8125 160.522 67.3333 160.73 68.375C160.98 69.375 161.105 70.5208 161.105 71.8125C161.105 72.5208 161.001 73.3958 160.792 74.4375C160.626 75.4375 160.042 76.6042 159.042 77.9375C158.584 78.4792 157.73 79.3958 156.48 80.6875C155.23 81.9792 153.667 83.4375 151.792 85.0625C149.917 86.6875 147.772 88.375 145.355 90.125C142.938 91.875 140.313 93.4792 137.48 94.9375C134.688 96.3958 131.063 97.8333 126.605 99.25C122.188 100.667 118.334 101.375 115.042 101.375C111.167 101.375 107.855 100.917 105.105 100C102.355 99.0417 100.105 97.7292 98.355 96.0625C96.605 94.3958 95.3133 92.4167 94.48 90.125C93.6883 87.7917 93.2925 85.25 93.2925 82.5C93.2925 79.0833 93.8133 75.4167 94.855 71.5C95.8967 67.5833 97.3342 63.6042 99.1675 59.5625C101.042 55.5208 103.251 51.4792 105.792 47.4375C108.376 43.3958 111.188 39.5417 114.23 35.875C117.313 32.1667 120.584 28.7292 124.042 25.5625C127.501 22.3958 131.042 19.6458 134.667 17.3125C138.292 14.9792 141.938 13.1458 145.605 11.8125C149.272 10.4792 152.876 9.8125 156.417 9.8125C158.167 9.8125 159.834 10.0208 161.417 10.4375C163.001 10.8125 164.376 11.4375 165.542 12.3125C166.751 13.1875 167.688 14.3542 168.355 15.8125C169.063 17.2292 169.417 18.9792 169.417 21.0625ZM153.57 90.125C154.57 88 155.716 85.6458 157.007 83.0625C158.299 80.4375 159.591 77.8542 160.882 75.3125C162.216 72.7292 163.466 70.2917 164.632 68C165.799 65.6667 166.778 63.6875 167.57 62.0625L188.195 21.5C188.445 20.9583 188.82 20.4375 189.32 19.9375C189.862 19.4375 190.466 19 191.132 18.625C191.799 18.2083 192.507 17.8958 193.257 17.6875C194.007 17.4375 194.757 17.3125 195.507 17.3125C197.341 17.3125 198.612 17.6667 199.32 18.375C200.028 19.0417 200.382 19.875 200.382 20.875C200.382 21.7917 200.153 22.7708 199.695 23.8125C199.237 24.8125 198.716 25.75 198.132 26.625C196.299 29.75 194.528 32.9167 192.82 36.125C191.153 39.2917 189.466 42.5 187.757 45.75C186.091 48.9583 184.403 52.1667 182.695 55.375C180.987 58.5417 179.195 61.6875 177.32 64.8125C178.487 63.6875 179.716 62.5208 181.007 61.3125C182.341 60.1042 183.778 59 185.32 58C186.862 57 188.549 56.1875 190.382 55.5625C192.216 54.8958 194.257 54.5625 196.507 54.5625C197.841 54.5625 199.112 54.6875 200.32 54.9375C201.528 55.1875 202.591 55.6042 203.507 56.1875C204.424 56.7292 205.153 57.5 205.695 58.5C206.237 59.4583 206.507 60.6458 206.507 62.0625C206.507 63.9375 206.216 65.6667 205.632 67.25C205.091 68.7917 204.382 70.2708 203.507 71.6875C202.632 73.0625 201.674 74.3958 200.632 75.6875C199.591 76.9375 198.591 78.2292 197.632 79.5625C196.716 80.8542 195.903 82.2083 195.195 83.625C194.528 85.0417 194.112 86.5833 193.945 88.25C193.945 88.3333 193.924 88.4167 193.882 88.5C193.882 88.5833 193.882 88.6667 193.882 88.75C193.882 89.5833 194.153 90.1042 194.695 90.3125C195.278 90.5208 196.007 90.625 196.882 90.625C198.007 90.625 199.216 90.4167 200.507 90C201.799 89.5417 203.091 88.9583 204.382 88.25C205.716 87.5 207.028 86.6667 208.32 85.75C209.653 84.8333 210.903 83.8958 212.07 82.9375C213.278 81.9792 214.382 81.0625 215.382 80.1875C216.382 79.2708 217.237 78.4792 217.945 77.8125C218.32 77.4792 218.716 77.2292 219.132 77.0625C219.549 76.8958 219.945 76.8125 220.32 76.8125C221.07 76.8125 221.695 77.1042 222.195 77.6875C222.737 78.2292 223.007 78.9792 223.007 79.9375C223.007 80.8125 222.695 81.8125 222.07 82.9375C221.487 84.0625 220.466 85.1875 219.007 86.3125C216.716 88.3125 214.382 90.2292 212.007 92.0625C209.632 93.8958 207.237 95.5208 204.82 96.9375C202.403 98.3542 199.987 99.4792 197.57 100.312C195.195 101.146 192.862 101.562 190.57 101.562C187.612 101.562 185.237 100.896 183.445 99.5625C181.653 98.1875 180.757 96.0417 180.757 93.125C180.757 91 181.112 89 181.82 87.125C182.57 85.2083 183.466 83.375 184.507 81.625C185.591 79.8333 186.737 78.125 187.945 76.5C189.153 74.8333 190.216 73.2083 191.132 71.625C191.632 70.9167 192.007 70.2708 192.257 69.6875C192.549 69.0625 192.695 68.3958 192.695 67.6875C192.695 67.0625 192.528 66.5625 192.195 66.1875C191.862 65.7708 191.341 65.5625 190.632 65.5625C188.174 65.5625 185.903 66.1667 183.82 67.375C181.737 68.5833 179.82 70.125 178.07 72C176.32 73.875 174.695 75.9375 173.195 78.1875C171.695 80.3958 170.299 82.5208 169.007 84.5625C168.424 85.4792 167.82 86.5417 167.195 87.75C166.612 88.9167 165.987 90.125 165.32 91.375C164.695 92.625 164.028 93.875 163.32 95.125C162.612 96.3333 161.862 97.4167 161.07 98.375C160.32 99.3333 159.507 100.104 158.632 100.688C157.799 101.271 156.924 101.562 156.007 101.562C154.549 101.562 153.424 101.125 152.632 100.25C151.841 99.4167 151.445 98.3542 151.445 97.0625C151.445 96.1042 151.612 95.1042 151.945 94.0625C152.278 92.9792 152.82 91.6667 153.57 90.125ZM244.222 65.875C242.264 65.875 240.368 66.375 238.535 67.375C236.702 68.375 235.077 69.6875 233.66 71.3125C232.243 72.9375 231.118 74.7708 230.285 76.8125C229.452 78.8125 229.035 80.8333 229.035 82.875C229.035 83.7083 229.077 84.5833 229.16 85.5C229.285 86.375 229.535 87.1875 229.91 87.9375C230.285 88.6875 230.806 89.3125 231.472 89.8125C232.181 90.3125 233.118 90.5625 234.285 90.5625C235.202 90.5625 236.264 90.1667 237.472 89.375C238.722 88.5417 239.993 87.5 241.285 86.25C242.618 84.9583 243.91 83.5625 245.16 82.0625C246.41 80.5208 247.535 79.0208 248.535 77.5625C249.535 76.1042 250.347 74.7917 250.972 73.625C251.597 72.4583 251.91 71.6042 251.91 71.0625C251.91 70.2708 251.639 69.5625 251.097 68.9375C250.556 68.2708 249.889 67.7083 249.097 67.25C248.306 66.7917 247.452 66.4583 246.535 66.25C245.66 66 244.889 65.875 244.222 65.875ZM287.535 82C286.785 82.7083 285.785 83.6875 284.535 84.9375C283.285 86.1875 281.847 87.5417 280.222 89C278.639 90.4583 276.931 91.9375 275.097 93.4375C273.306 94.8958 271.452 96.2292 269.535 97.4375C267.66 98.6458 265.806 99.625 263.972 100.375C262.139 101.167 260.41 101.562 258.785 101.562C257.327 101.562 256.077 101.25 255.035 100.625C253.993 100 253.118 99.1875 252.41 98.1875C251.743 97.1875 251.243 96.0625 250.91 94.8125C250.577 93.5208 250.41 92.2083 250.41 90.875C250.41 90 250.472 89.1458 250.597 88.3125C250.722 87.4375 250.931 86.625 251.222 85.875C249.931 87.625 248.452 89.4375 246.785 91.3125C245.16 93.1458 243.389 94.8333 241.472 96.375C239.597 97.875 237.618 99.1042 235.535 100.062C233.493 101.062 231.41 101.562 229.285 101.562C228.202 101.562 226.931 101.333 225.472 100.875C224.056 100.458 222.702 99.75 221.41 98.75C220.118 97.75 219.035 96.4583 218.16 94.875C217.285 93.2917 216.847 91.3542 216.847 89.0625C216.847 87.3542 217.097 85.3125 217.597 82.9375C218.139 80.5625 218.931 78.1042 219.972 75.5625C221.056 72.9792 222.41 70.4375 224.035 67.9375C225.702 65.4375 227.66 63.2083 229.91 61.25C232.16 59.25 234.722 57.6458 237.597 56.4375C240.472 55.1875 243.681 54.5625 247.222 54.5625C249.056 54.5625 250.66 54.7917 252.035 55.25C253.41 55.7083 254.577 56.2083 255.535 56.75C256.618 57.4167 257.577 58.1458 258.41 58.9375C259.118 58.5625 259.847 58.2083 260.597 57.875C261.222 57.5833 261.868 57.3333 262.535 57.125C263.243 56.875 263.847 56.75 264.347 56.75C265.931 56.75 267.222 57.1875 268.222 58.0625C269.222 58.9375 269.722 59.8958 269.722 60.9375C269.722 61.2292 269.702 61.4583 269.66 61.625C269.452 62.4167 269.118 63.4167 268.66 64.625C268.243 65.8333 267.764 67.1875 267.222 68.6875C266.681 70.1458 266.118 71.6875 265.535 73.3125C264.993 74.8958 264.493 76.4583 264.035 78C263.577 79.5417 263.202 81 262.91 82.375C262.618 83.7083 262.472 84.8542 262.472 85.8125C262.472 87.0625 262.681 88.1042 263.097 88.9375C263.514 89.7292 264.222 90.125 265.222 90.125C265.847 90.125 266.577 89.9375 267.41 89.5625C268.285 89.1458 269.222 88.6042 270.222 87.9375C271.222 87.2708 272.243 86.5208 273.285 85.6875C274.368 84.8125 275.41 83.9375 276.41 83.0625C278.743 80.9792 281.222 78.6042 283.847 75.9375C284.514 75.3958 285.16 75.125 285.785 75.125C286.618 75.125 287.306 75.5417 287.847 76.375C288.431 77.1667 288.722 78.0625 288.722 79.0625C288.722 80.2292 288.327 81.2083 287.535 82ZM306.688 63.5625C308.312 62.5625 309.979 61.6458 311.688 60.8125C313.438 59.9792 315.125 59.2708 316.75 58.6875C318.375 58.0625 319.917 57.5833 321.375 57.25C322.875 56.875 324.208 56.6875 325.375 56.6875C327.25 56.6875 328.688 57.1458 329.688 58.0625C330.729 58.9375 331.25 60.4375 331.25 62.5625C331.25 63.0208 331.229 63.5208 331.188 64.0625C331.146 64.5625 331.062 65.1042 330.938 65.6875C330.729 66.7708 330.104 68.0417 329.062 69.5C328.021 70.9583 326.792 72.4792 325.375 74.0625C324 75.6458 322.5 77.25 320.875 78.875C319.292 80.4583 317.812 81.9375 316.438 83.3125C315.104 84.6458 313.979 85.8125 313.062 86.8125C312.188 87.8125 311.75 88.5 311.75 88.875C311.75 89.2083 311.771 89.4375 311.812 89.5625C311.854 89.6875 312.042 89.75 312.375 89.75C314.625 88.7917 317.125 87.6458 319.875 86.3125C322.667 84.9375 325.438 83.5417 328.188 82.125C330.938 80.7083 333.542 79.3333 336 78C338.458 76.625 340.542 75.4375 342.25 74.4375C342.625 74.2292 343 74.0625 343.375 73.9375C343.792 73.7708 344.167 73.6875 344.5 73.6875C345.25 73.6875 345.875 73.9375 346.375 74.4375C346.875 74.9375 347.125 75.6042 347.125 76.4375C347.125 77.3958 346.708 78.5 345.875 79.75C345.083 80.9583 343.729 82.2292 341.812 83.5625C340.354 84.4792 338.708 85.5208 336.875 86.6875C335.083 87.8125 333.188 89 331.188 90.25C329.229 91.4583 327.229 92.6458 325.188 93.8125C323.188 94.9792 321.25 96.0208 319.375 96.9375C317.5 97.8542 315.729 98.6042 314.062 99.1875C312.438 99.7292 311.021 100 309.812 100C306.938 100 304.771 99.3125 303.312 97.9375C301.896 96.5625 301.188 94.7917 301.188 92.625C301.188 92.2917 301.208 92.0417 301.25 91.875C301.542 90.0417 302.083 88.2708 302.875 86.5625C303.667 84.8542 304.562 83.2292 305.562 81.6875C306.562 80.1458 307.604 78.6875 308.688 77.3125C309.771 75.8958 310.75 74.5833 311.625 73.375C312.542 72.125 313.292 70.9792 313.875 69.9375C314.458 68.8958 314.75 67.9375 314.75 67.0625C314.75 66.8542 314.708 66.6458 314.625 66.4375C314.542 66.2292 314.354 66.125 314.062 66.125C313.562 66.125 312.729 66.3125 311.562 66.6875C310.438 67.0625 309.229 67.5625 307.938 68.1875C306.646 68.8125 305.417 69.5417 304.25 70.375C303.083 71.1667 302.25 72.0208 301.75 72.9375C301.083 74.1042 300.312 75.5833 299.438 77.375C298.562 79.1667 297.646 81.0417 296.688 83C295.771 84.9583 294.875 86.8958 294 88.8125C293.125 90.7292 292.375 92.375 291.75 93.75C291.25 94.9583 290.583 96.0417 289.75 97C288.958 97.9583 288.083 98.7708 287.125 99.4375C286.167 100.104 285.188 100.625 284.188 101C283.188 101.375 282.271 101.562 281.438 101.562C280.479 101.562 279.708 101.312 279.125 100.812C278.583 100.312 278.312 99.5 278.312 98.375C278.312 97.9167 278.375 97.3542 278.5 96.6875C278.667 95.9792 278.979 95.2083 279.438 94.375C280.188 92.9583 280.938 91.4167 281.688 89.75C282.479 88.0833 283.375 86.1875 284.375 84.0625C285.375 81.8958 286.521 79.4375 287.812 76.6875C289.146 73.8958 290.708 70.6875 292.5 67.0625C291.917 66.5625 291.417 65.9583 291 65.25C290.625 64.5 290.438 63.5833 290.438 62.5C290.438 61.5 290.646 60.6458 291.062 59.9375C291.479 59.1875 292.042 58.5833 292.75 58.125C293.458 57.6667 294.271 57.3333 295.188 57.125C296.146 56.875 297.146 56.75 298.188 56.75C299.271 56.75 300.354 56.8542 301.438 57.0625C302.521 57.2292 303.479 57.5 304.312 57.875C305.188 58.25 305.896 58.7083 306.438 59.25C306.979 59.7917 307.25 60.4167 307.25 61.125C307.25 61.25 307.208 61.4167 307.125 61.625C307.042 61.8333 306.938 62.0625 306.812 62.3125C306.729 62.5625 306.646 62.7917 306.562 63C306.479 63.2083 306.438 63.375 306.438 63.5C306.438 63.5833 306.458 63.625 306.5 63.625H306.562L306.688 63.5625ZM351.965 81.9375C351.507 82.8958 351.048 84.0208 350.59 85.3125C350.173 86.5625 349.965 87.6875 349.965 88.6875C349.965 89.3125 350.09 89.8125 350.34 90.1875C350.59 90.5625 351.069 90.75 351.777 90.75C352.652 90.75 353.736 90.5 355.027 90C356.361 89.4583 357.777 88.7708 359.277 87.9375C360.819 87.0625 362.402 86.0833 364.027 85C365.694 83.875 367.34 82.7292 368.965 81.5625C370.59 80.3542 372.132 79.1667 373.59 78C375.09 76.7917 376.423 75.6875 377.59 74.6875C377.923 74.3958 378.319 74.1875 378.777 74.0625C379.236 73.9375 379.632 73.875 379.965 73.875C380.798 73.875 381.486 74.1667 382.027 74.75C382.569 75.3333 382.84 76.1042 382.84 77.0625C382.84 77.9375 382.548 78.9167 381.965 80C381.382 81.0833 380.361 82.1458 378.902 83.1875C376.236 85.6458 373.548 87.9792 370.84 90.1875C368.132 92.3958 365.423 94.3542 362.715 96.0625C360.048 97.7292 357.382 99.0625 354.715 100.062C352.09 101.062 349.527 101.562 347.027 101.562C345.319 101.562 343.882 101.333 342.715 100.875C341.59 100.417 340.673 99.7917 339.965 99C339.298 98.2083 338.819 97.2708 338.527 96.1875C338.236 95.1042 338.09 93.9583 338.09 92.75C338.09 90.7083 338.382 88.625 338.965 86.5C339.59 84.3333 340.319 82.3542 341.152 80.5625C342.611 77.3125 344.09 74.0833 345.59 70.875C347.09 67.6667 348.465 64.7292 349.715 62.0625L368.652 21.75C369.402 20.125 370.402 18.9792 371.652 18.3125C372.944 17.6458 374.236 17.3125 375.527 17.3125C376.819 17.3125 377.986 17.6667 379.027 18.375C380.111 19.0833 380.652 20.2292 380.652 21.8125C380.652 22.5625 380.465 23.3542 380.09 24.1875C379.757 25.0208 379.319 25.9167 378.777 26.875C377.736 28.8333 376.486 31.2292 375.027 34.0625C373.611 36.8958 372.069 39.9792 370.402 43.3125C368.777 46.6458 367.09 50.125 365.34 53.75C363.632 57.3333 361.944 60.8333 360.277 64.25C358.652 67.6667 357.111 70.9167 355.652 74C354.236 77.0417 353.007 79.6875 351.965 81.9375ZM404.117 63.125C403.909 63.0833 403.722 63.0625 403.555 63.0625C403.388 63.0625 403.201 63.0625 402.992 63.0625C401.409 63.0625 399.93 63.375 398.555 64C397.18 64.625 395.909 65.4583 394.742 66.5C393.617 67.5 392.597 68.6458 391.68 69.9375C390.805 71.2292 390.013 72.5208 389.305 73.8125C388.597 75.0625 387.992 76.2708 387.492 77.4375C387.034 78.6042 386.68 79.5833 386.43 80.375C387.888 79.625 389.388 78.7708 390.93 77.8125C392.513 76.8542 393.992 75.9375 395.367 75.0625C396.742 74.1875 397.93 73.3958 398.93 72.6875C399.972 71.9792 400.701 71.5 401.117 71.25C402.992 70.0833 404.284 69 404.992 68C405.701 66.9583 406.055 66.0625 406.055 65.3125C406.055 64.6875 405.847 64.1875 405.43 63.8125C405.055 63.4375 404.617 63.2083 404.117 63.125ZM406.367 54.5C409.826 54.5 412.409 55.3333 414.117 57C415.826 58.6667 416.68 60.9792 416.68 63.9375C416.68 65.6875 416.222 67.5208 415.305 69.4375C414.388 71.3542 412.805 73.3125 410.555 75.3125C408.305 77.2708 405.284 79.2917 401.492 81.375C397.742 83.4167 393.034 85.4792 387.367 87.5625C387.576 88.7708 388.222 89.7292 389.305 90.4375C390.388 91.1042 391.826 91.4375 393.617 91.4375C395.534 91.4375 397.576 91.1667 399.742 90.625C401.951 90.0417 404.117 89.3125 406.242 88.4375C408.409 87.5625 410.513 86.625 412.555 85.625C414.597 84.5833 416.43 83.6042 418.055 82.6875C419.722 81.7708 421.097 80.9792 422.18 80.3125C423.305 79.6458 424.055 79.2292 424.43 79.0625C424.805 78.8125 425.138 78.6667 425.43 78.625C425.763 78.5833 426.055 78.5625 426.305 78.5625C426.805 78.5625 427.222 78.6875 427.555 78.9375C427.888 79.1458 428.159 79.4167 428.367 79.75C428.617 80.0417 428.784 80.375 428.867 80.75C428.951 81.0833 428.992 81.375 428.992 81.625C428.992 82 428.951 82.4583 428.867 83C428.784 83.5 428.472 84.0833 427.93 84.75C427.722 84.9583 427.013 85.5208 425.805 86.4375C424.638 87.3542 423.117 88.4375 421.242 89.6875C419.367 90.9375 417.18 92.2708 414.68 93.6875C412.222 95.0625 409.597 96.3333 406.805 97.5C404.055 98.6667 401.18 99.625 398.18 100.375C395.18 101.167 392.222 101.562 389.305 101.562C386.805 101.562 384.576 101.083 382.617 100.125C380.701 99.1667 379.055 97.875 377.68 96.25C376.347 94.625 375.326 92.75 374.617 90.625C373.909 88.5 373.555 86.2708 373.555 83.9375C373.555 82.1458 373.909 80.1875 374.617 78.0625C375.326 75.8958 376.347 73.7292 377.68 71.5625C379.013 69.3958 380.638 67.2917 382.555 65.25C384.513 63.1667 386.701 61.3333 389.117 59.75C391.534 58.1667 394.18 56.8958 397.055 55.9375C399.972 54.9792 403.076 54.5 406.367 54.5ZM444.083 64.8125C446.624 66.1458 448.895 67.6667 450.895 69.375C452.895 71.0833 454.583 72.8958 455.958 74.8125C457.374 76.6875 458.437 78.6042 459.145 80.5625C459.895 82.5208 460.27 84.4375 460.27 86.3125C460.27 88.6875 459.583 90.8333 458.208 92.75C456.874 94.625 455.103 96.2292 452.895 97.5625C450.728 98.8542 448.228 99.8333 445.395 100.5C442.603 101.208 439.77 101.562 436.895 101.562C434.728 101.562 432.624 101.312 430.583 100.812C428.541 100.354 426.666 99.625 424.958 98.625C423.291 97.625 421.853 96.3542 420.645 94.8125C419.437 93.2292 418.583 91.3542 418.083 89.1875C417.999 88.8542 417.958 88.5833 417.958 88.375C417.958 87.25 418.353 86.2917 419.145 85.5C419.937 84.6667 420.812 84.25 421.77 84.25C422.228 84.25 422.728 84.3333 423.27 84.5C423.853 84.6667 424.291 85.0417 424.583 85.625C425.124 86.625 425.874 87.5208 426.833 88.3125C427.833 89.1042 428.937 89.7917 430.145 90.375C431.353 90.9167 432.624 91.3542 433.958 91.6875C435.333 91.9792 436.666 92.125 437.958 92.125C439.291 92.125 440.562 92 441.77 91.75C443.02 91.5 444.103 91.1042 445.02 90.5625C445.978 90.0208 446.728 89.3333 447.27 88.5C447.812 87.6667 448.083 86.6458 448.083 85.4375C448.083 83.3125 447.603 81.3542 446.645 79.5625C445.687 77.7708 444.437 76.125 442.895 74.625C441.395 73.0833 439.666 71.6667 437.708 70.375C435.791 69.0417 433.874 67.7708 431.958 66.5625C431.749 66.4375 431.437 66.0833 431.02 65.5C430.603 64.875 430.395 64.25 430.395 63.625C430.395 63.125 430.52 62.7292 430.77 62.4375C431.437 61.5625 432.208 60.6667 433.083 59.75C433.958 58.8333 434.895 58 435.895 57.25C436.895 56.4583 437.978 55.8333 439.145 55.375C440.312 54.875 441.52 54.625 442.77 54.625C443.687 54.625 444.541 54.75 445.333 55C446.124 55.25 446.791 55.5833 447.333 56C447.874 56.375 448.291 56.8125 448.583 57.3125C448.916 57.7708 449.083 58.2083 449.083 58.625C449.083 59.2083 448.937 59.7708 448.645 60.3125C448.353 60.8542 447.958 61.375 447.458 61.875C446.999 62.375 446.458 62.875 445.833 63.375C445.249 63.875 444.666 64.3542 444.083 64.8125Z" fill="black"/>
</svg>
