<svg width="100" height="100" viewBox="0 0 100 100" fill="none" xmlns="http://www.w3.org/2000/svg">
<rect x="36.6893" y="24.2386" width="28.0963" height="25.9091" rx="7.5" fill="black"/>
<circle cx="51" cy="39" r="4" fill="black" stroke="#C00000" stroke-width="2"/>
<path d="M47 29V39.3636" stroke="#C00000" stroke-width="2"/>
<path d="M33.9562 21H69V72.1705H33.9562M33.9562 21V72.1705M33.9562 21C32.2804 21 31.0699 22.9432 31.0699 22.9432V74.1136L33.9562 72.1705" stroke="black"/>
<path d="M69 72.1704H33.8796" stroke="black"/>
<path d="M33.8795 72.1704C30.4344 74.8473 29.6652 75.4091 33.8795 78H69V72.1704" stroke="black"/>
<path d="M36.6891 74.1136H68.9999V76.0568H34.5819" stroke="black" stroke-width="0.5"/>
<path d="M58.5 60.7159V60.8172L58.5394 60.9105C59.4548 63.0771 61.0468 64.8164 62.4232 66.1729C62.7243 66.4696 63.0087 66.742 63.2747 66.9968C63.6322 67.3393 63.9564 67.6497 64.2423 67.9439C64.4862 68.1947 64.6836 68.4154 64.8307 68.6106C64.9808 68.81 65.0579 68.9564 65.0886 69.0587C65.1144 69.1446 65.1003 69.1703 65.0959 69.1782L65.0954 69.179C65.0836 69.2011 65.0313 69.2739 64.8401 69.3671C64.4459 69.5592 63.6953 69.7275 62.4155 69.8444C59.8834 70.0758 55.5438 70.0883 48.5473 69.9319L48.5473 69.9318H48.5361C42.9544 69.9318 38.5 65.7683 38.5 60.7159C38.5 55.6635 42.9544 51.5 48.5361 51.5C54.1132 51.5 58.5 55.6592 58.5 60.7159Z" fill="#D9D9D9" stroke="black"/>
<path d="M49.6136 57.9205V58.5682M47.9278 58.5682H49.6136M49.6136 58.5682V66.3409H50.4565M50.4565 66.3409H51.2994H52.1422H50.4565Z" stroke="black"/>
<ellipse cx="50.035" cy="55.9773" rx="0.702408" ry="0.647727" fill="black"/>
</svg>
