<svg width="100" height="100" viewBox="0 0 100 100" fill="none" xmlns="http://www.w3.org/2000/svg">
<path d="M27.5 52.5718H57V69.0718H27.5L21 54.5718H27.5V52.5718ZM27.5 52.5718L28.5 50.5718H37L38 52.5718" stroke="black"/>
<path d="M27.5 69.0718L21 54.5718H51.5L57 69.0718" stroke="black"/>
<path d="M59.3542 63.2866C59.2058 63.5195 59.2743 63.8286 59.5072 63.977L63.3022 66.3952C63.5351 66.5436 63.8442 66.4751 63.9926 66.2422C64.141 66.0093 64.0725 65.7002 63.8396 65.5518L60.4662 63.4023L62.6157 60.029C62.7641 59.7961 62.6956 59.487 62.4628 59.3386C62.2299 59.1902 61.9208 59.2587 61.7724 59.4916L59.3542 63.2866ZM46.9988 49.6068C47.3022 45.2898 48.3935 42.1714 49.9483 40.0121C51.4979 37.86 53.528 36.6314 55.7757 36.1188C60.3009 35.087 65.7651 36.9536 69.8862 40.2371C74.0175 43.5288 76.6186 48.0909 75.7122 52.3146C74.8114 56.5117 70.372 60.6951 59.6677 63.0672L59.8841 64.0435C70.6946 61.6479 75.661 57.3189 76.6899 52.5244C77.7131 47.7565 74.7677 42.8479 70.5093 39.455C66.2406 36.0539 60.4718 34.0223 55.5534 35.1439C53.0793 35.708 50.8351 37.0691 49.1368 39.4277C47.4437 41.7791 46.3136 45.0926 46.0012 49.5367L46.9988 49.6068Z" fill="black"/>
<path d="M39.8333 40.837C39.8333 43.2923 37.7002 45.337 35 45.337C32.2997 45.337 30.1666 43.2923 30.1666 40.837C30.1666 38.3816 32.2997 36.337 35 36.337C37.7002 36.337 39.8333 38.3816 39.8333 40.837Z" stroke="black"/>
<path d="M32.6983 47.837L31.7192 44.7774C32.7971 45.5099 33.8837 45.8995 35 45.8995C36.1163 45.8995 37.2029 45.5099 38.2808 44.7774L37.3017 47.837H32.6983Z" stroke="black"/>
<path d="M36.0667 48.337C36.0667 48.8893 35.5891 49.337 35 49.337C34.4109 49.337 33.9333 48.8893 33.9333 48.337C33.9333 47.7847 34.4109 47.837 35 47.837C35.5891 47.837 36.0667 47.7847 36.0667 48.337Z" fill="black"/>
<path d="M37.9333 46.587H35.2667" stroke="black"/>
<path d="M32.3334 47.337H33.4H33.6667" stroke="black"/>
<path d="M35.5333 45.337V43.837H34.2V45.337" stroke="black"/>
<path d="M38.7333 35.837L40.0667 34.337" stroke="black"/>
<path d="M40.3334 38.337L42.4667 37.337" stroke="black"/>
<path d="M40.8666 40.587H43" stroke="black"/>
<path d="M29.1333 40.587H27" stroke="black"/>
<path d="M31.8 35.837L30.7333 34.337" stroke="black"/>
<path d="M29.6667 37.837L28.0667 36.837" stroke="black"/>
<path d="M35 35.337V33.337" stroke="black"/>
<path d="M35.462 43.087C35.462 43.3631 35.2232 43.337 34.9287 43.337C34.6341 43.337 34.3953 43.3631 34.3953 43.087C34.3953 42.8108 34.6341 42.587 34.9287 42.587C35.2232 42.587 35.462 42.8108 35.462 43.087Z" fill="black"/>
</svg>
