<svg width="100" height="100" viewBox="0 0 100 100" fill="none" xmlns="http://www.w3.org/2000/svg">
<rect x="35.5" y="21.5" width="29" height="57" rx="2.5" stroke="black"/>
<path d="M42 21H57V22C57 23.1046 56.1046 24 55 24H44C42.8954 24 42 23.1046 42 22V21Z" fill="black"/>
<circle cx="50" cy="31" r="3" fill="black"/>
<circle cx="50" cy="39" r="3" fill="black"/>
<circle cx="58" cy="39" r="3" fill="black"/>
<circle cx="42" cy="39" r="3" fill="black"/>
<circle cx="42" cy="47" r="3" fill="black"/>
<circle cx="50" cy="47" r="3" fill="black"/>
<circle cx="58" cy="47" r="3" fill="black"/>
<circle cx="42" cy="55" r="3" fill="black"/>
<circle cx="50" cy="55" r="3" fill="black"/>
<circle cx="58" cy="55" r="3" fill="black"/>
<circle cx="42" cy="31" r="3" fill="black"/>
<circle cx="58" cy="31" r="3" fill="black"/>
<rect x="40" y="62" width="20" height="1" fill="black"/>
<path d="M35 71H65V76C65 77.6569 63.6569 79 62 79H38C36.3431 79 35 77.6569 35 76V71Z" fill="black"/>
<path d="M56 71C56 74.3137 53.3137 77 50 77C46.6863 77 44 74.3137 44 71C44 67.6863 46.6863 65 50 65C53.3137 65 56 67.6863 56 71Z" fill="#EDEDED"/>
<circle cx="50" cy="71" r="4.5" fill="#EDEDED" stroke="black"/>
</svg>
