<svg width="100" height="100" viewBox="0 0 100 100" fill="none" xmlns="http://www.w3.org/2000/svg">
<path d="M14 52.3571V65.5C14 66.0523 14.4477 66.5 15 66.5H56.9891C57.5414 66.5 57.9891 66.0523 57.9891 65.5V52.3571M14 52.3571H57.9891M14 52.3571L33.0232 37.6377C33.1984 37.5021 33.4137 37.4286 33.6352 37.4286H72.3157C73.2379 37.4286 73.6685 38.5706 72.976 39.1795L57.9891 52.3571" stroke="black"/>
<path d="M73.5 38L85 33.5H39.5133C39.3149 33.5 39.121 33.559 38.9562 33.6695L32.5 38" stroke="black"/>
<path d="M85 33V57.121C85 57.5588 84.7152 57.9458 84.2971 58.0758L57.2174 66.5" stroke="black"/>
<path d="M22.7406 48.25L32.5844 40.75H36.144L26.3002 48.25H22.7406Z" fill="#DB0000" stroke="black" stroke-width="0.5"/>
<path d="M29.7406 48.25L39.5844 40.75H58.3383L48.4946 48.25H29.7406Z" fill="#2F2CDA" stroke="black" stroke-width="0.5"/>
<path d="M52.75 48.25L56.0833 45.75H59.25L55.9167 48.25H52.75Z" fill="#0E00B5" stroke="black" stroke-width="0.5"/>
<path d="M58.75 43.25L62.0833 40.75H65.25L61.9167 43.25H58.75Z" fill="#0E00B5" stroke="black" stroke-width="0.5"/>
</svg>
